<svg height="1645.5078125" version="1.1" width="1542.6953125" xmlns="http://www.w3.org/2000/svg" xmlns:xlink="http://www.w3.org/1999/xlink" style="overflow: hidden; position: relative;" viewBox="0 0 1542.6953125 1645.5078125" preserveAspectRatio="xMidYMid meet"><desc style="-webkit-tap-highlight-color: rgba(0, 0, 0, 0);">Created with Raphaël 2.1.4</desc><defs style="-webkit-tap-highlight-color: rgba(0, 0, 0, 0);"><path stroke-linecap="round" d="M5,0 0,2.5 5,5z" id="raphael-marker-block" style="-webkit-tap-highlight-color: rgba(0, 0, 0, 0);"></path><marker id="raphael-marker-endblock33-obj49" markerHeight="3" markerWidth="3" orient="auto" refX="1.5" refY="1.5" style="-webkit-tap-highlight-color: rgba(0, 0, 0, 0);"><use xlink:href="#raphael-marker-block" transform="rotate(180 1.5 1.5) scale(0.6,0.6)" stroke-width="1.6667" fill="black" stroke="none" style="-webkit-tap-highlight-color: rgba(0, 0, 0, 0);"></use></marker><marker id="raphael-marker-endblock33-obj50" markerHeight="3" markerWidth="3" orient="auto" refX="1.5" refY="1.5" style="-webkit-tap-highlight-color: rgba(0, 0, 0, 0);"><use xlink:href="#raphael-marker-block" transform="rotate(180 1.5 1.5) scale(0.6,0.6)" stroke-width="1.6667" fill="black" stroke="none" style="-webkit-tap-highlight-color: rgba(0, 0, 0, 0);"></use></marker><marker id="raphael-marker-endblock33-obj51" markerHeight="3" markerWidth="3" orient="auto" refX="1.5" refY="1.5" style="-webkit-tap-highlight-color: rgba(0, 0, 0, 0);"><use xlink:href="#raphael-marker-block" transform="rotate(180 1.5 1.5) scale(0.6,0.6)" stroke-width="1.6667" fill="black" stroke="none" style="-webkit-tap-highlight-color: rgba(0, 0, 0, 0);"></use></marker><marker id="raphael-marker-endblock33-obj52" markerHeight="3" markerWidth="3" orient="auto" refX="1.5" refY="1.5" style="-webkit-tap-highlight-color: rgba(0, 0, 0, 0);"><use xlink:href="#raphael-marker-block" transform="rotate(180 1.5 1.5) scale(0.6,0.6)" stroke-width="1.6667" fill="black" stroke="none" style="-webkit-tap-highlight-color: rgba(0, 0, 0, 0);"></use></marker><marker id="raphael-marker-endblock33-obj53" markerHeight="3" markerWidth="3" orient="auto" refX="1.5" refY="1.5" style="-webkit-tap-highlight-color: rgba(0, 0, 0, 0);"><use xlink:href="#raphael-marker-block" transform="rotate(180 1.5 1.5) scale(0.6,0.6)" stroke-width="1.6667" fill="black" stroke="none" style="-webkit-tap-highlight-color: rgba(0, 0, 0, 0);"></use></marker><marker id="raphael-marker-endblock33-obj54" markerHeight="3" markerWidth="3" orient="auto" refX="1.5" refY="1.5" style="-webkit-tap-highlight-color: rgba(0, 0, 0, 0);"><use xlink:href="#raphael-marker-block" transform="rotate(180 1.5 1.5) scale(0.6,0.6)" stroke-width="1.6667" fill="black" stroke="none" style="-webkit-tap-highlight-color: rgba(0, 0, 0, 0);"></use></marker><marker id="raphael-marker-endblock33-obj56" markerHeight="3" markerWidth="3" orient="auto" refX="1.5" refY="1.5" style="-webkit-tap-highlight-color: rgba(0, 0, 0, 0);"><use xlink:href="#raphael-marker-block" transform="rotate(180 1.5 1.5) scale(0.6,0.6)" stroke-width="1.6667" fill="black" stroke="none" style="-webkit-tap-highlight-color: rgba(0, 0, 0, 0);"></use></marker><marker id="raphael-marker-endblock33-obj58" markerHeight="3" markerWidth="3" orient="auto" refX="1.5" refY="1.5" style="-webkit-tap-highlight-color: rgba(0, 0, 0, 0);"><use xlink:href="#raphael-marker-block" transform="rotate(180 1.5 1.5) scale(0.6,0.6)" stroke-width="1.6667" fill="black" stroke="none" style="-webkit-tap-highlight-color: rgba(0, 0, 0, 0);"></use></marker><marker id="raphael-marker-endblock33-obj59" markerHeight="3" markerWidth="3" orient="auto" refX="1.5" refY="1.5" style="-webkit-tap-highlight-color: rgba(0, 0, 0, 0);"><use xlink:href="#raphael-marker-block" transform="rotate(180 1.5 1.5) scale(0.6,0.6)" stroke-width="1.6667" fill="black" stroke="none" style="-webkit-tap-highlight-color: rgba(0, 0, 0, 0);"></use></marker><marker id="raphael-marker-endblock33-obj60" markerHeight="3" markerWidth="3" orient="auto" refX="1.5" refY="1.5" style="-webkit-tap-highlight-color: rgba(0, 0, 0, 0);"><use xlink:href="#raphael-marker-block" transform="rotate(180 1.5 1.5) scale(0.6,0.6)" stroke-width="1.6667" fill="black" stroke="none" style="-webkit-tap-highlight-color: rgba(0, 0, 0, 0);"></use></marker><marker id="raphael-marker-endblock33-obj61" markerHeight="3" markerWidth="3" orient="auto" refX="1.5" refY="1.5" style="-webkit-tap-highlight-color: rgba(0, 0, 0, 0);"><use xlink:href="#raphael-marker-block" transform="rotate(180 1.5 1.5) scale(0.6,0.6)" stroke-width="1.6667" fill="black" stroke="none" style="-webkit-tap-highlight-color: rgba(0, 0, 0, 0);"></use></marker><marker id="raphael-marker-endblock33-obj63" markerHeight="3" markerWidth="3" orient="auto" refX="1.5" refY="1.5" style="-webkit-tap-highlight-color: rgba(0, 0, 0, 0);"><use xlink:href="#raphael-marker-block" transform="rotate(180 1.5 1.5) scale(0.6,0.6)" stroke-width="1.6667" fill="black" stroke="none" style="-webkit-tap-highlight-color: rgba(0, 0, 0, 0);"></use></marker><marker id="raphael-marker-endblock33-obj65" markerHeight="3" markerWidth="3" orient="auto" refX="1.5" refY="1.5" style="-webkit-tap-highlight-color: rgba(0, 0, 0, 0);"><use xlink:href="#raphael-marker-block" transform="rotate(180 1.5 1.5) scale(0.6,0.6)" stroke-width="1.6667" fill="black" stroke="none" style="-webkit-tap-highlight-color: rgba(0, 0, 0, 0);"></use></marker><marker id="raphael-marker-endblock33-obj66" markerHeight="3" markerWidth="3" orient="auto" refX="1.5" refY="1.5" style="-webkit-tap-highlight-color: rgba(0, 0, 0, 0);"><use xlink:href="#raphael-marker-block" transform="rotate(180 1.5 1.5) scale(0.6,0.6)" stroke-width="1.6667" fill="black" stroke="none" style="-webkit-tap-highlight-color: rgba(0, 0, 0, 0);"></use></marker><marker id="raphael-marker-endblock33-obj68" markerHeight="3" markerWidth="3" orient="auto" refX="1.5" refY="1.5" style="-webkit-tap-highlight-color: rgba(0, 0, 0, 0);"><use xlink:href="#raphael-marker-block" transform="rotate(180 1.5 1.5) scale(0.6,0.6)" stroke-width="1.6667" fill="black" stroke="none" style="-webkit-tap-highlight-color: rgba(0, 0, 0, 0);"></use></marker><marker id="raphael-marker-endblock33-obj70" markerHeight="3" markerWidth="3" orient="auto" refX="1.5" refY="1.5" style="-webkit-tap-highlight-color: rgba(0, 0, 0, 0);"><use xlink:href="#raphael-marker-block" transform="rotate(180 1.5 1.5) scale(0.6,0.6)" stroke-width="1.6667" fill="black" stroke="none" style="-webkit-tap-highlight-color: rgba(0, 0, 0, 0);"></use></marker><marker id="raphael-marker-endblock33-obj71" markerHeight="3" markerWidth="3" orient="auto" refX="1.5" refY="1.5" style="-webkit-tap-highlight-color: rgba(0, 0, 0, 0);"><use xlink:href="#raphael-marker-block" transform="rotate(180 1.5 1.5) scale(0.6,0.6)" stroke-width="1.6667" fill="black" stroke="none" style="-webkit-tap-highlight-color: rgba(0, 0, 0, 0);"></use></marker><marker id="raphael-marker-endblock33-obj73" markerHeight="3" markerWidth="3" orient="auto" refX="1.5" refY="1.5" style="-webkit-tap-highlight-color: rgba(0, 0, 0, 0);"><use xlink:href="#raphael-marker-block" transform="rotate(180 1.5 1.5) scale(0.6,0.6)" stroke-width="1.6667" fill="black" stroke="none" style="-webkit-tap-highlight-color: rgba(0, 0, 0, 0);"></use></marker><marker id="raphael-marker-endblock33-obj75" markerHeight="3" markerWidth="3" orient="auto" refX="1.5" refY="1.5" style="-webkit-tap-highlight-color: rgba(0, 0, 0, 0);"><use xlink:href="#raphael-marker-block" transform="rotate(180 1.5 1.5) scale(0.6,0.6)" stroke-width="1.6667" fill="black" stroke="none" style="-webkit-tap-highlight-color: rgba(0, 0, 0, 0);"></use></marker><marker id="raphael-marker-endblock33-obj76" markerHeight="3" markerWidth="3" orient="auto" refX="1.5" refY="1.5" style="-webkit-tap-highlight-color: rgba(0, 0, 0, 0);"><use xlink:href="#raphael-marker-block" transform="rotate(180 1.5 1.5) scale(0.6,0.6)" stroke-width="1.6667" fill="black" stroke="none" style="-webkit-tap-highlight-color: rgba(0, 0, 0, 0);"></use></marker><marker id="raphael-marker-endblock33-obj78" markerHeight="3" markerWidth="3" orient="auto" refX="1.5" refY="1.5" style="-webkit-tap-highlight-color: rgba(0, 0, 0, 0);"><use xlink:href="#raphael-marker-block" transform="rotate(180 1.5 1.5) scale(0.6,0.6)" stroke-width="1.6667" fill="black" stroke="none" style="-webkit-tap-highlight-color: rgba(0, 0, 0, 0);"></use></marker><marker id="raphael-marker-endblock33-obj80" markerHeight="3" markerWidth="3" orient="auto" refX="1.5" refY="1.5" style="-webkit-tap-highlight-color: rgba(0, 0, 0, 0);"><use xlink:href="#raphael-marker-block" transform="rotate(180 1.5 1.5) scale(0.6,0.6)" stroke-width="1.6667" fill="black" stroke="none" style="-webkit-tap-highlight-color: rgba(0, 0, 0, 0);"></use></marker><marker id="raphael-marker-endblock33-obj81" markerHeight="3" markerWidth="3" orient="auto" refX="1.5" refY="1.5" style="-webkit-tap-highlight-color: rgba(0, 0, 0, 0);"><use xlink:href="#raphael-marker-block" transform="rotate(180 1.5 1.5) scale(0.6,0.6)" stroke-width="1.6667" fill="black" stroke="none" style="-webkit-tap-highlight-color: rgba(0, 0, 0, 0);"></use></marker><marker id="raphael-marker-endblock33-obj82" markerHeight="3" markerWidth="3" orient="auto" refX="1.5" refY="1.5" style="-webkit-tap-highlight-color: rgba(0, 0, 0, 0);"><use xlink:href="#raphael-marker-block" transform="rotate(180 1.5 1.5) scale(0.6,0.6)" stroke-width="1.6667" fill="black" stroke="none" style="-webkit-tap-highlight-color: rgba(0, 0, 0, 0);"></use></marker></defs><rect x="0" y="0" width="82.671875" height="36" rx="20" ry="20" fill="#ffffff" stroke="#000000" style="-webkit-tap-highlight-color: rgba(0, 0, 0, 0);" stroke-width="3" class="flowchart" id="st3" transform="matrix(1,0,0,1,177.8438,63.3574)"></rect><text x="10" y="18" text-anchor="start" font-family="&quot;Arial&quot;" font-size="14px" stroke="none" fill="#000000" style="-webkit-tap-highlight-color: rgba(0, 0, 0, 0); text-anchor: start; font-family: Arial; font-size: 14px;" id="st3t" class="flowchartt" transform="matrix(1,0,0,1,177.8438,63.3574)" stroke-width="1"><tspan dy="5" style="-webkit-tap-highlight-color: rgba(0, 0, 0, 0);">start main</tspan></text><path fill="#ffffff" stroke="#000000" d="M10,18L0,36L75.34375,36L95.34375,0L20,0L10,18" stroke-width="3" id="io5" class="flowchart" style="-webkit-tap-highlight-color: rgba(0, 0, 0, 0);" transform="matrix(1,0,0,1,171.5078,212.7148)"></path><text x="30" y="18" text-anchor="start" font-family="&quot;Arial&quot;" font-size="14px" stroke="none" fill="#000000" style="-webkit-tap-highlight-color: rgba(0, 0, 0, 0); text-anchor: start; font-family: Arial; font-size: 14px;" id="io5t" class="flowchartt" transform="matrix(1,0,0,1,171.5078,212.7148)" stroke-width="1"><tspan dy="5" style="-webkit-tap-highlight-color: rgba(0, 0, 0, 0);">input: </tspan></text><rect x="0" y="0" width="99.3125" height="36" rx="0" ry="0" fill="#ffffff" stroke="#000000" style="-webkit-tap-highlight-color: rgba(0, 0, 0, 0);" stroke-width="3" class="flowchart" id="op8" transform="matrix(1,0,0,1,169.5234,362.0723)"></rect><text x="10" y="18" text-anchor="start" font-family="&quot;Arial&quot;" font-size="14px" stroke="none" fill="#000000" style="-webkit-tap-highlight-color: rgba(0, 0, 0, 0); text-anchor: start; font-family: Arial; font-size: 14px;" id="op8t" class="flowchartt" transform="matrix(1,0,0,1,169.5234,362.0723)" stroke-width="1"><tspan dy="5" style="-webkit-tap-highlight-color: rgba(0, 0, 0, 0);">numbers = []</tspan></text><rect x="0" y="0" width="49.0625" height="36" rx="0" ry="0" fill="#ffffff" stroke="#000000" style="-webkit-tap-highlight-color: rgba(0, 0, 0, 0);" stroke-width="3" class="flowchart" id="op10" transform="matrix(1,0,0,1,194.6484,511.4297)"></rect><text x="10" y="18" text-anchor="start" font-family="&quot;Arial&quot;" font-size="14px" stroke="none" fill="#000000" style="-webkit-tap-highlight-color: rgba(0, 0, 0, 0); text-anchor: start; font-family: Arial; font-size: 14px;" id="op10t" class="flowchartt" transform="matrix(1,0,0,1,194.6484,511.4297)" stroke-width="1"><tspan dy="5" style="-webkit-tap-highlight-color: rgba(0, 0, 0, 0);">i = 1</tspan></text><rect x="0" y="0" width="340.375" height="36" rx="0" ry="0" fill="#ffffff" stroke="#000000" style="-webkit-tap-highlight-color: rgba(0, 0, 0, 0);" stroke-width="3" class="flowchart" id="sub12" transform="matrix(1,0,0,1,48.9922,660.7871)"></rect><rect x="10" y="0" width="320.375" height="36" rx="0" ry="0" fill="#ffffff" stroke="#000000" style="-webkit-tap-highlight-color: rgba(0, 0, 0, 0);" stroke-width="3" id="sub12i" transform="matrix(1,0,0,1,48.9922,660.7871)"></rect><text x="20" y="18" text-anchor="start" font-family="&quot;Arial&quot;" font-size="14px" stroke="none" fill="#000000" style="-webkit-tap-highlight-color: rgba(0, 0, 0, 0); text-anchor: start; font-family: Arial; font-size: 14px;" id="sub12t" class="flowchartt" transform="matrix(1,0,0,1,48.9922,660.7871)" stroke-width="1"><tspan dy="5" style="-webkit-tap-highlight-color: rgba(0, 0, 0, 0);">print('Введите числа, 0 означает конец ввода')</tspan></text><path fill="#ffffff" stroke="#000000" d="M36.474609375,18.2373046875L0,36.474609375L72.94921875,72.94921875L145.8984375,36.474609375L72.94921875,0L0,36.474609375" stroke-width="3" id="cond15" class="flowchart" style="-webkit-tap-highlight-color: rgba(0, 0, 0, 0);" transform="matrix(1,0,0,1,146.2305,791.6699)"></path><text x="41.474609375" y="36.474609375" text-anchor="start" font-family="&quot;Arial&quot;" font-size="14px" stroke="none" fill="#000000" style="-webkit-tap-highlight-color: rgba(0, 0, 0, 0); text-anchor: start; font-family: Arial; font-size: 14px;" id="cond15t" class="flowchartt" transform="matrix(1,0,0,1,146.2305,791.6699)" stroke-width="1"><tspan dy="5.005859375" style="-webkit-tap-highlight-color: rgba(0, 0, 0, 0);">while True</tspan></text><rect x="0" y="0" width="229.96875" height="36" rx="0" ry="0" fill="#ffffff" stroke="#000000" style="-webkit-tap-highlight-color: rgba(0, 0, 0, 0);" stroke-width="3" class="flowchart" id="op36" transform="matrix(1,0,0,1,104.1953,977.9766)"></rect><text x="10" y="18" text-anchor="start" font-family="&quot;Arial&quot;" font-size="14px" stroke="none" fill="#000000" style="-webkit-tap-highlight-color: rgba(0, 0, 0, 0); text-anchor: start; font-family: Arial; font-size: 14px;" id="op36t" class="flowchartt" transform="matrix(1,0,0,1,104.1953,977.9766)" stroke-width="1"><tspan dy="5" style="-webkit-tap-highlight-color: rgba(0, 0, 0, 0);">number = int(input(f'Число #{i}: '))</tspan></text><rect x="0" y="0" width="203.203125" height="36" rx="0" ry="0" fill="#ffffff" stroke="#000000" style="-webkit-tap-highlight-color: rgba(0, 0, 0, 0);" stroke-width="3" class="flowchart" id="sub38" transform="matrix(1,0,0,1,117.5781,1127.334)"></rect><rect x="10" y="0" width="183.203125" height="36" rx="0" ry="0" fill="#ffffff" stroke="#000000" style="-webkit-tap-highlight-color: rgba(0, 0, 0, 0);" stroke-width="3" id="sub38i" transform="matrix(1,0,0,1,117.5781,1127.334)"></rect><text x="20" y="18" text-anchor="start" font-family="&quot;Arial&quot;" font-size="14px" stroke="none" fill="#000000" style="-webkit-tap-highlight-color: rgba(0, 0, 0, 0); text-anchor: start; font-family: Arial; font-size: 14px;" id="sub38t" class="flowchartt" transform="matrix(1,0,0,1,117.5781,1127.334)" stroke-width="1"><tspan dy="5" style="-webkit-tap-highlight-color: rgba(0, 0, 0, 0);">numbers.append(number)</tspan></text><rect x="0" y="0" width="76.578125" height="36" rx="0" ry="0" fill="#ffffff" stroke="#000000" style="-webkit-tap-highlight-color: rgba(0, 0, 0, 0);" stroke-width="3" class="flowchart" id="op40" transform="matrix(1,0,0,1,180.8906,1276.6914)"></rect><text x="10" y="18" text-anchor="start" font-family="&quot;Arial&quot;" font-size="14px" stroke="none" fill="#000000" style="-webkit-tap-highlight-color: rgba(0, 0, 0, 0); text-anchor: start; font-family: Arial; font-size: 14px;" id="op40t" class="flowchartt" transform="matrix(1,0,0,1,180.8906,1276.6914)" stroke-width="1"><tspan dy="5" style="-webkit-tap-highlight-color: rgba(0, 0, 0, 0);">i = (i + 1)</tspan></text><path fill="#ffffff" stroke="#000000" d="M49.1015625,24.55078125L0,49.1015625L98.203125,98.203125L196.40625,49.1015625L98.203125,0L0,49.1015625" stroke-width="3" id="cond43" class="flowchart" style="-webkit-tap-highlight-color: rgba(0, 0, 0, 0);" transform="matrix(1,0,0,1,120.9766,1394.9473)"></path><text x="54.1015625" y="49.1015625" text-anchor="start" font-family="&quot;Arial&quot;" font-size="14px" stroke="none" fill="#000000" style="-webkit-tap-highlight-color: rgba(0, 0, 0, 0); text-anchor: start; font-family: Arial; font-size: 14px;" id="cond43t" class="flowchartt" transform="matrix(1,0,0,1,120.9766,1394.9473)" stroke-width="1"><tspan dy="5.0078125" style="-webkit-tap-highlight-color: rgba(0, 0, 0, 0);">if (number == 0)</tspan></text><rect x="0" y="0" width="78.015625" height="36" rx="0" ry="0" fill="#ffffff" stroke="#000000" style="-webkit-tap-highlight-color: rgba(0, 0, 0, 0);" stroke-width="3" class="flowchart" id="sub47" transform="matrix(1,0,0,1,180.1719,1606.5078)"></rect><rect x="10" y="0" width="58.015625" height="36" rx="0" ry="0" fill="#ffffff" stroke="#000000" style="-webkit-tap-highlight-color: rgba(0, 0, 0, 0);" stroke-width="3" id="sub47i" transform="matrix(1,0,0,1,180.1719,1606.5078)"></rect><text x="20" y="18" text-anchor="start" font-family="&quot;Arial&quot;" font-size="14px" stroke="none" fill="#000000" style="-webkit-tap-highlight-color: rgba(0, 0, 0, 0); text-anchor: start; font-family: Arial; font-size: 14px;" id="sub47t" class="flowchartt" transform="matrix(1,0,0,1,180.1719,1606.5078)" stroke-width="1"><tspan dy="5" style="-webkit-tap-highlight-color: rgba(0, 0, 0, 0);">break</tspan></text><rect x="0" y="0" width="79.078125" height="36" rx="0" ry="0" fill="#ffffff" stroke="#000000" style="-webkit-tap-highlight-color: rgba(0, 0, 0, 0);" stroke-width="3" class="flowchart" id="op54" transform="matrix(1,0,0,1,521.7695,810.1445)"></rect><text x="10" y="18" text-anchor="start" font-family="&quot;Arial&quot;" font-size="14px" stroke="none" fill="#000000" style="-webkit-tap-highlight-color: rgba(0, 0, 0, 0); text-anchor: start; font-family: Arial; font-size: 14px;" id="op54t" class="flowchartt" transform="matrix(1,0,0,1,521.7695,810.1445)" stroke-width="1"><tspan dy="5" style="-webkit-tap-highlight-color: rgba(0, 0, 0, 0);">result = []</tspan></text><path fill="#ffffff" stroke="#000000" d="M75.357421875,37.6787109375L0,75.357421875L150.71484375,150.71484375L301.4296875,75.357421875L150.71484375,0L0,75.357421875" stroke-width="3" id="cond57" class="flowchart" style="-webkit-tap-highlight-color: rgba(0, 0, 0, 0);" transform="matrix(1,0,0,1,410.5938,902.1445)"></path><text x="80.357421875" y="75.357421875" text-anchor="start" font-family="&quot;Arial&quot;" font-size="14px" stroke="none" fill="#000000" style="-webkit-tap-highlight-color: rgba(0, 0, 0, 0); text-anchor: start; font-family: Arial; font-size: 14px;" id="cond57t" class="flowchartt" transform="matrix(1,0,0,1,410.5938,902.1445)" stroke-width="1"><tspan dy="5.013671875" style="-webkit-tap-highlight-color: rgba(0, 0, 0, 0);">for j in range(len(numbers))</tspan></text><rect x="0" y="0" width="149.890625" height="36" rx="0" ry="0" fill="#ffffff" stroke="#000000" style="-webkit-tap-highlight-color: rgba(0, 0, 0, 0);" stroke-width="3" class="flowchart" id="op74" transform="matrix(1,0,0,1,486.3633,1166.2168)"></rect><text x="10" y="18" text-anchor="start" font-family="&quot;Arial&quot;" font-size="14px" stroke="none" fill="#000000" style="-webkit-tap-highlight-color: rgba(0, 0, 0, 0); text-anchor: start; font-family: Arial; font-size: 14px;" id="op74t" class="flowchartt" transform="matrix(1,0,0,1,486.3633,1166.2168)" stroke-width="1"><tspan dy="5" style="-webkit-tap-highlight-color: rgba(0, 0, 0, 0);">number = numbers[j]</tspan></text><path fill="#ffffff" stroke="#000000" d="M53.1796875,26.58984375L0,53.1796875L106.359375,106.359375L212.71875,53.1796875L106.359375,0L0,53.1796875" stroke-width="3" id="cond77" class="flowchart" style="-webkit-tap-highlight-color: rgba(0, 0, 0, 0);" transform="matrix(1,0,0,1,454.9492,1280.3945)"></path><text x="58.1796875" y="53.1796875" text-anchor="start" font-family="&quot;Arial&quot;" font-size="14px" stroke="none" fill="#000000" style="-webkit-tap-highlight-color: rgba(0, 0, 0, 0); text-anchor: start; font-family: Arial; font-size: 14px;" id="cond77t" class="flowchartt" transform="matrix(1,0,0,1,454.9492,1280.3945)" stroke-width="1"><tspan dy="5.0078125" style="-webkit-tap-highlight-color: rgba(0, 0, 0, 0);">if (number &lt; 0 &lt; j)</tspan></text><rect x="0" y="0" width="255.28125" height="36" rx="0" ry="0" fill="#ffffff" stroke="#000000" style="-webkit-tap-highlight-color: rgba(0, 0, 0, 0);" stroke-width="3" class="flowchart" id="sub81" transform="matrix(1,0,0,1,433.668,1500.1113)"></rect><rect x="10" y="0" width="235.28125" height="36" rx="0" ry="0" fill="#ffffff" stroke="#000000" style="-webkit-tap-highlight-color: rgba(0, 0, 0, 0);" stroke-width="3" id="sub81i" transform="matrix(1,0,0,1,433.668,1500.1113)"></rect><text x="20" y="18" text-anchor="start" font-family="&quot;Arial&quot;" font-size="14px" stroke="none" fill="#000000" style="-webkit-tap-highlight-color: rgba(0, 0, 0, 0); text-anchor: start; font-family: Arial; font-size: 14px;" id="sub81t" class="flowchartt" transform="matrix(1,0,0,1,433.668,1500.1113)" stroke-width="1"><tspan dy="5" style="-webkit-tap-highlight-color: rgba(0, 0, 0, 0);">result.append(str(numbers[(j - 1)]))</tspan></text><path fill="#ffffff" stroke="#000000" d="M51.57421875,25.787109375L0,51.57421875L103.1484375,103.1484375L206.296875,51.57421875L103.1484375,0L0,51.57421875" stroke-width="3" id="cond89" class="flowchart" style="-webkit-tap-highlight-color: rgba(0, 0, 0, 0);" transform="matrix(1,0,0,1,878.0547,925.9277)"></path><text x="56.57421875" y="51.57421875" text-anchor="start" font-family="&quot;Arial&quot;" font-size="14px" stroke="none" fill="#000000" style="-webkit-tap-highlight-color: rgba(0, 0, 0, 0); text-anchor: start; font-family: Arial; font-size: 14px;" id="cond89t" class="flowchartt" transform="matrix(1,0,0,1,878.0547,925.9277)" stroke-width="1"><tspan dy="5.01171875" style="-webkit-tap-highlight-color: rgba(0, 0, 0, 0);">if (len(result) &gt; 0)</tspan></text><rect x="0" y="0" width="426.359375" height="36" rx="0" ry="0" fill="#ffffff" stroke="#000000" style="-webkit-tap-highlight-color: rgba(0, 0, 0, 0);" stroke-width="3" class="flowchart" id="sub93" transform="matrix(1,0,0,1,768.0234,1142.4336)"></rect><rect x="10" y="0" width="406.359375" height="36" rx="0" ry="0" fill="#ffffff" stroke="#000000" style="-webkit-tap-highlight-color: rgba(0, 0, 0, 0);" stroke-width="3" id="sub93i" transform="matrix(1,0,0,1,768.0234,1142.4336)"></rect><text x="20" y="18" text-anchor="start" font-family="&quot;Arial&quot;" font-size="14px" stroke="none" fill="#000000" style="-webkit-tap-highlight-color: rgba(0, 0, 0, 0); text-anchor: start; font-family: Arial; font-size: 14px;" id="sub93t" class="flowchartt" transform="matrix(1,0,0,1,768.0234,1142.4336)" stroke-width="1"><tspan dy="5" style="-webkit-tap-highlight-color: rgba(0, 0, 0, 0);">print('Все числа, идущие перед отрицательными числами:')</tspan></text><rect x="0" y="0" width="160.25" height="36" rx="0" ry="0" fill="#ffffff" stroke="#000000" style="-webkit-tap-highlight-color: rgba(0, 0, 0, 0);" stroke-width="3" class="flowchart" id="sub95" transform="matrix(1,0,0,1,901.0781,1291.791)"></rect><rect x="10" y="0" width="140.25" height="36" rx="0" ry="0" fill="#ffffff" stroke="#000000" style="-webkit-tap-highlight-color: rgba(0, 0, 0, 0);" stroke-width="3" id="sub95i" transform="matrix(1,0,0,1,901.0781,1291.791)"></rect><text x="20" y="18" text-anchor="start" font-family="&quot;Arial&quot;" font-size="14px" stroke="none" fill="#000000" style="-webkit-tap-highlight-color: rgba(0, 0, 0, 0); text-anchor: start; font-family: Arial; font-size: 14px;" id="sub95t" class="flowchartt" transform="matrix(1,0,0,1,901.0781,1291.791)" stroke-width="1"><tspan dy="5" style="-webkit-tap-highlight-color: rgba(0, 0, 0, 0);">print(', '.join(result))</tspan></text><rect x="0" y="0" width="78.796875" height="36" rx="20" ry="20" fill="#ffffff" stroke="#000000" style="-webkit-tap-highlight-color: rgba(0, 0, 0, 0);" stroke-width="3" class="flowchart" id="e102" transform="matrix(1,0,0,1,941.8047,1441.1484)"></rect><text x="10" y="18" text-anchor="start" font-family="&quot;Arial&quot;" font-size="14px" stroke="none" fill="#000000" style="-webkit-tap-highlight-color: rgba(0, 0, 0, 0); text-anchor: start; font-family: Arial; font-size: 14px;" id="e102t" class="flowchartt" transform="matrix(1,0,0,1,941.8047,1441.1484)" stroke-width="1"><tspan dy="5" style="-webkit-tap-highlight-color: rgba(0, 0, 0, 0);">end main</tspan></text><rect x="0" y="0" width="251.296875" height="36" rx="0" ry="0" fill="#ffffff" stroke="#000000" style="-webkit-tap-highlight-color: rgba(0, 0, 0, 0);" stroke-width="3" class="flowchart" id="sub99" transform="matrix(1,0,0,1,1227.8828,959.502)"></rect><rect x="10" y="0" width="231.296875" height="36" rx="0" ry="0" fill="#ffffff" stroke="#000000" style="-webkit-tap-highlight-color: rgba(0, 0, 0, 0);" stroke-width="3" id="sub99i" transform="matrix(1,0,0,1,1227.8828,959.502)"></rect><text x="20" y="18" text-anchor="start" font-family="&quot;Arial&quot;" font-size="14px" stroke="none" fill="#000000" style="-webkit-tap-highlight-color: rgba(0, 0, 0, 0); text-anchor: start; font-family: Arial; font-size: 14px;" id="sub99t" class="flowchartt" transform="matrix(1,0,0,1,1227.8828,959.502)" stroke-width="1"><tspan dy="5" style="-webkit-tap-highlight-color: rgba(0, 0, 0, 0);">print('Нет отрицательных чисел')</tspan><tspan dy="16.8" x="20" style="-webkit-tap-highlight-color: rgba(0, 0, 0, 0);"></tspan></text><path fill="none" stroke="#000000" d="M219.1796875,99.357421875C219.1796875,99.357421875,219.1796875,187.16673950094264,219.1796875,208.2186803966154" stroke-width="3" marker-end="url(#raphael-marker-endblock33-obj49)" style="-webkit-tap-highlight-color: rgba(0, 0, 0, 0);"></path><path fill="none" stroke="#000000" d="M219.1796875,248.71484375C219.1796875,248.71484375,219.1796875,336.52416137594264,219.1796875,357.5761022716154" stroke-width="3" marker-end="url(#raphael-marker-endblock33-obj50)" style="-webkit-tap-highlight-color: rgba(0, 0, 0, 0);"></path><path fill="none" stroke="#000000" d="M219.1796875,398.072265625C219.1796875,398.072265625,219.1796875,485.88158325094264,219.1796875,506.9335241466154" stroke-width="3" marker-end="url(#raphael-marker-endblock33-obj51)" style="-webkit-tap-highlight-color: rgba(0, 0, 0, 0);"></path><path fill="none" stroke="#000000" d="M219.1796875,547.4296875C219.1796875,547.4296875,219.1796875,635.2390051259426,219.1796875,656.2909460216155" stroke-width="3" marker-end="url(#raphael-marker-endblock33-obj52)" style="-webkit-tap-highlight-color: rgba(0, 0, 0, 0);"></path><path fill="none" stroke="#000000" d="M219.1796875,696.787109375C219.1796875,696.787109375,219.1796875,768.341351125855,219.1796875,787.1732536179013" stroke-width="3" marker-end="url(#raphael-marker-endblock33-obj53)" style="-webkit-tap-highlight-color: rgba(0, 0, 0, 0);"></path><path fill="none" stroke="#000000" d="M219.1796875,864.619140625C219.1796875,864.619140625,219.1796875,952.4284582509426,219.1796875,973.4803991466154" stroke-width="3" marker-end="url(#raphael-marker-endblock33-obj54)" style="-webkit-tap-highlight-color: rgba(0, 0, 0, 0);"></path><text x="224.1796875" y="874.619140625" text-anchor="start" font-family="&quot;Arial&quot;" font-size="14px" stroke="none" fill="#000000" style="-webkit-tap-highlight-color: rgba(0, 0, 0, 0); text-anchor: start; font-family: Arial; font-size: 14px;" stroke-width="1"><tspan dy="5.009765625" style="-webkit-tap-highlight-color: rgba(0, 0, 0, 0);">yes</tspan></text><path fill="none" stroke="#000000" d="M292.12890625,828.14453125C292.12890625,828.14453125,485.125083536841,828.14453125,517.2597009464175,828.14453125" stroke-width="3" marker-end="url(#raphael-marker-endblock33-obj56)" style="-webkit-tap-highlight-color: rgba(0, 0, 0, 0);"></path><text x="297.12890625" y="818.14453125" text-anchor="start" font-family="&quot;Arial&quot;" font-size="14px" stroke="none" fill="#000000" style="-webkit-tap-highlight-color: rgba(0, 0, 0, 0); text-anchor: start; font-family: Arial; font-size: 14px;" stroke-width="1"><tspan dy="5.00390625" style="-webkit-tap-highlight-color: rgba(0, 0, 0, 0);">no</tspan></text><path fill="none" stroke="#000000" d="M219.1796875,1013.9765625C219.1796875,1013.9765625,219.1796875,1101.7858801259426,219.1796875,1122.8378210216156" stroke-width="3" marker-end="url(#raphael-marker-endblock33-obj58)" style="-webkit-tap-highlight-color: rgba(0, 0, 0, 0);"></path><path fill="none" stroke="#000000" d="M219.1796875,1163.333984375C219.1796875,1163.333984375,219.1796875,1251.1433020009426,219.1796875,1272.1952428966154" stroke-width="3" marker-end="url(#raphael-marker-endblock33-obj59)" style="-webkit-tap-highlight-color: rgba(0, 0, 0, 0);"></path><path fill="none" stroke="#000000" d="M219.1796875,1312.69140625C219.1796875,1312.69140625,219.1796875,1373.2669898358872,219.1796875,1390.451762327782" stroke-width="3" marker-end="url(#raphael-marker-endblock33-obj60)" style="-webkit-tap-highlight-color: rgba(0, 0, 0, 0);"></path><path fill="none" stroke="#000000" d="M219.1796875,1493.150390625C219.1796875,1493.150390625,219.1796875,1580.9597082509426,219.1796875,1602.0116491466154" stroke-width="3" marker-end="url(#raphael-marker-endblock33-obj61)" style="-webkit-tap-highlight-color: rgba(0, 0, 0, 0);"></path><text x="224.1796875" y="1503.150390625" text-anchor="start" font-family="&quot;Arial&quot;" font-size="14px" stroke="none" fill="#000000" style="-webkit-tap-highlight-color: rgba(0, 0, 0, 0); text-anchor: start; font-family: Arial; font-size: 14px;" stroke-width="1"><tspan dy="5.009765625" style="-webkit-tap-highlight-color: rgba(0, 0, 0, 0);">yes</tspan></text><path fill="none" stroke="#000000" d="M317.3828125,1444.048828125C317.3828125,1444.048828125,342.3828125,1444.048828125,342.3828125,1444.048828125C342.3828125,1444.048828125,342.3828125,834.14453125,342.3828125,834.14453125C342.3828125,834.14453125,354.3828125,828.14453125,342.3828125,822.14453125C342.3828125,822.14453125,342.3828125,766.669921875,342.3828125,766.669921875C342.3828125,766.669921875,219.1796875,766.669921875,219.1796875,766.669921875C219.1796875,766.669921875,219.1796875,779.9738931655884,219.1796875,787.1715495083481" stroke-width="3" marker-end="url(#raphael-marker-endblock33-obj63)" style="-webkit-tap-highlight-color: rgba(0, 0, 0, 0);"></path><text x="322.3828125" y="1434.048828125" text-anchor="start" font-family="&quot;Arial&quot;" font-size="14px" stroke="none" fill="#000000" style="-webkit-tap-highlight-color: rgba(0, 0, 0, 0); text-anchor: start; font-family: Arial; font-size: 14px;" stroke-width="1"><tspan dy="5.001953125" style="-webkit-tap-highlight-color: rgba(0, 0, 0, 0);">no</tspan></text><path fill="none" stroke="#000000" d="M561.30859375,846.14453125C561.30859375,846.14453125,561.30859375,884.34530210495,561.30859375,897.6446915676352" stroke-width="3" marker-end="url(#raphael-marker-endblock33-obj65)" style="-webkit-tap-highlight-color: rgba(0, 0, 0, 0);"></path><path fill="none" stroke="#000000" d="M561.30859375,1052.859375C561.30859375,1052.859375,561.30859375,1140.6686926259426,561.30859375,1161.7206335216156" stroke-width="3" marker-end="url(#raphael-marker-endblock33-obj66)" style="-webkit-tap-highlight-color: rgba(0, 0, 0, 0);"></path><text x="566.30859375" y="1062.859375" text-anchor="start" font-family="&quot;Arial&quot;" font-size="14px" stroke="none" fill="#000000" style="-webkit-tap-highlight-color: rgba(0, 0, 0, 0); text-anchor: start; font-family: Arial; font-size: 14px;" stroke-width="1"><tspan dy="5" style="-webkit-tap-highlight-color: rgba(0, 0, 0, 0);">yes</tspan></text><path fill="none" stroke="#000000" d="M712.0234375,977.501953125C712.0234375,977.501953125,846.990736560896,977.501953125,873.549243163211,977.501953125" stroke-width="3" marker-end="url(#raphael-marker-endblock33-obj68)" style="-webkit-tap-highlight-color: rgba(0, 0, 0, 0);"></path><text x="717.0234375" y="967.501953125" text-anchor="start" font-family="&quot;Arial&quot;" font-size="14px" stroke="none" fill="#000000" style="-webkit-tap-highlight-color: rgba(0, 0, 0, 0); text-anchor: start; font-family: Arial; font-size: 14px;" stroke-width="1"><tspan dy="5.001953125" style="-webkit-tap-highlight-color: rgba(0, 0, 0, 0);">no</tspan></text><path fill="none" stroke="#000000" d="M561.30859375,1202.216796875C561.30859375,1202.216796875,561.30859375,1259.266195305041,561.30859375,1275.8963177966107" stroke-width="3" marker-end="url(#raphael-marker-endblock33-obj70)" style="-webkit-tap-highlight-color: rgba(0, 0, 0, 0);"></path><path fill="none" stroke="#000000" d="M561.30859375,1386.75390625C561.30859375,1386.75390625,561.30859375,1474.5632238759426,561.30859375,1495.6151647716154" stroke-width="3" marker-end="url(#raphael-marker-endblock33-obj71)" style="-webkit-tap-highlight-color: rgba(0, 0, 0, 0);"></path><text x="566.30859375" y="1396.75390625" text-anchor="start" font-family="&quot;Arial&quot;" font-size="14px" stroke="none" fill="#000000" style="-webkit-tap-highlight-color: rgba(0, 0, 0, 0); text-anchor: start; font-family: Arial; font-size: 14px;" stroke-width="1"><tspan dy="5.00390625" style="-webkit-tap-highlight-color: rgba(0, 0, 0, 0);">yes</tspan></text><path fill="none" stroke="#000000" d="M667.66796875,1333.57421875C667.66796875,1333.57421875,692.66796875,1333.57421875,692.66796875,1333.57421875C692.66796875,1333.57421875,692.66796875,877.14453125,692.66796875,877.14453125C692.66796875,877.14453125,561.30859375,877.14453125,561.30859375,877.14453125C561.30859375,877.14453125,561.30859375,890.4485025405884,561.30859375,897.6461588833481" stroke-width="3" marker-end="url(#raphael-marker-endblock33-obj73)" style="-webkit-tap-highlight-color: rgba(0, 0, 0, 0);"></path><text x="672.66796875" y="1323.57421875" text-anchor="start" font-family="&quot;Arial&quot;" font-size="14px" stroke="none" fill="#000000" style="-webkit-tap-highlight-color: rgba(0, 0, 0, 0); text-anchor: start; font-family: Arial; font-size: 14px;" stroke-width="1"><tspan dy="5.01171875" style="-webkit-tap-highlight-color: rgba(0, 0, 0, 0);">no</tspan></text><path fill="none" stroke="#000000" d="M688.94921875,1518.111328125C688.94921875,1518.111328125,713.94921875,1518.111328125,713.94921875,1518.111328125C713.94921875,1518.111328125,713.94921875,983.501953125,713.94921875,983.501953125C713.94921875,983.501953125,725.94921875,977.501953125,713.94921875,971.501953125C713.94921875,971.501953125,713.94921875,877.14453125,713.94921875,877.14453125C713.94921875,877.14453125,561.30859375,877.14453125,561.30859375,877.14453125C561.30859375,877.14453125,561.30859375,890.4485025405884,561.30859375,897.6461588833481" stroke-width="3" marker-end="url(#raphael-marker-endblock33-obj75)" style="-webkit-tap-highlight-color: rgba(0, 0, 0, 0);"></path><path fill="none" stroke="#000000" d="M981.203125,1029.076171875C981.203125,1029.076171875,981.203125,1116.8854895009426,981.203125,1137.9374303966156" stroke-width="3" marker-end="url(#raphael-marker-endblock33-obj76)" style="-webkit-tap-highlight-color: rgba(0, 0, 0, 0);"></path><text x="986.203125" y="1039.076171875" text-anchor="start" font-family="&quot;Arial&quot;" font-size="14px" stroke="none" fill="#000000" style="-webkit-tap-highlight-color: rgba(0, 0, 0, 0); text-anchor: start; font-family: Arial; font-size: 14px;" stroke-width="1"><tspan dy="5.013671875" style="-webkit-tap-highlight-color: rgba(0, 0, 0, 0);">yes</tspan></text><path fill="none" stroke="#000000" d="M1084.3515625,977.501953125C1084.3515625,977.501953125,1199.07793212682,977.501953125,1223.3900631903161,977.501953125" stroke-width="3" marker-end="url(#raphael-marker-endblock33-obj78)" style="-webkit-tap-highlight-color: rgba(0, 0, 0, 0);"></path><text x="1089.3515625" y="967.501953125" text-anchor="start" font-family="&quot;Arial&quot;" font-size="14px" stroke="none" fill="#000000" style="-webkit-tap-highlight-color: rgba(0, 0, 0, 0); text-anchor: start; font-family: Arial; font-size: 14px;" stroke-width="1"><tspan dy="5.001953125" style="-webkit-tap-highlight-color: rgba(0, 0, 0, 0);">no</tspan></text><path fill="none" stroke="#000000" d="M981.203125,1178.43359375C981.203125,1178.43359375,981.203125,1266.2429113759426,981.203125,1287.2948522716154" stroke-width="3" marker-end="url(#raphael-marker-endblock33-obj80)" style="-webkit-tap-highlight-color: rgba(0, 0, 0, 0);"></path><path fill="none" stroke="#000000" d="M981.203125,1327.791015625C981.203125,1327.791015625,981.203125,1415.6003332509426,981.203125,1436.6522741466154" stroke-width="3" marker-end="url(#raphael-marker-endblock33-obj81)" style="-webkit-tap-highlight-color: rgba(0, 0, 0, 0);"></path><path fill="none" stroke="#000000" d="M1353.53125,995.501953125C1353.53125,995.501953125,1353.53125,1416.1484375,1353.53125,1416.1484375C1353.53125,1416.1484375,981.203125,1416.1484375,981.203125,1416.1484375C981.203125,1416.1484375,981.203125,1429.4524087905884,981.203125,1436.650065133348" stroke-width="3" marker-end="url(#raphael-marker-endblock33-obj82)" style="-webkit-tap-highlight-color: rgba(0, 0, 0, 0);"></path></svg>