<svg height="1597.677734375" version="1.1" width="1302.609375" xmlns="http://www.w3.org/2000/svg" xmlns:xlink="http://www.w3.org/1999/xlink" style="overflow: hidden; position: relative;" viewBox="0 0 1302.609375 1597.677734375" preserveAspectRatio="xMidYMid meet"><desc style="-webkit-tap-highlight-color: rgba(0, 0, 0, 0);">Created with Raphaël 2.1.4</desc><defs style="-webkit-tap-highlight-color: rgba(0, 0, 0, 0);"><path stroke-linecap="round" d="M5,0 0,2.5 5,5z" id="raphael-marker-block" style="-webkit-tap-highlight-color: rgba(0, 0, 0, 0);"></path><marker id="raphael-marker-endblock33-obj38" markerHeight="3" markerWidth="3" orient="auto" refX="1.5" refY="1.5" style="-webkit-tap-highlight-color: rgba(0, 0, 0, 0);"><use xlink:href="#raphael-marker-block" transform="rotate(180 1.5 1.5) scale(0.6,0.6)" stroke-width="1.6667" fill="black" stroke="none" style="-webkit-tap-highlight-color: rgba(0, 0, 0, 0);"></use></marker><marker id="raphael-marker-endblock33-obj39" markerHeight="3" markerWidth="3" orient="auto" refX="1.5" refY="1.5" style="-webkit-tap-highlight-color: rgba(0, 0, 0, 0);"><use xlink:href="#raphael-marker-block" transform="rotate(180 1.5 1.5) scale(0.6,0.6)" stroke-width="1.6667" fill="black" stroke="none" style="-webkit-tap-highlight-color: rgba(0, 0, 0, 0);"></use></marker><marker id="raphael-marker-endblock33-obj40" markerHeight="3" markerWidth="3" orient="auto" refX="1.5" refY="1.5" style="-webkit-tap-highlight-color: rgba(0, 0, 0, 0);"><use xlink:href="#raphael-marker-block" transform="rotate(180 1.5 1.5) scale(0.6,0.6)" stroke-width="1.6667" fill="black" stroke="none" style="-webkit-tap-highlight-color: rgba(0, 0, 0, 0);"></use></marker><marker id="raphael-marker-endblock33-obj41" markerHeight="3" markerWidth="3" orient="auto" refX="1.5" refY="1.5" style="-webkit-tap-highlight-color: rgba(0, 0, 0, 0);"><use xlink:href="#raphael-marker-block" transform="rotate(180 1.5 1.5) scale(0.6,0.6)" stroke-width="1.6667" fill="black" stroke="none" style="-webkit-tap-highlight-color: rgba(0, 0, 0, 0);"></use></marker><marker id="raphael-marker-endblock33-obj43" markerHeight="3" markerWidth="3" orient="auto" refX="1.5" refY="1.5" style="-webkit-tap-highlight-color: rgba(0, 0, 0, 0);"><use xlink:href="#raphael-marker-block" transform="rotate(180 1.5 1.5) scale(0.6,0.6)" stroke-width="1.6667" fill="black" stroke="none" style="-webkit-tap-highlight-color: rgba(0, 0, 0, 0);"></use></marker><marker id="raphael-marker-endblock33-obj45" markerHeight="3" markerWidth="3" orient="auto" refX="1.5" refY="1.5" style="-webkit-tap-highlight-color: rgba(0, 0, 0, 0);"><use xlink:href="#raphael-marker-block" transform="rotate(180 1.5 1.5) scale(0.6,0.6)" stroke-width="1.6667" fill="black" stroke="none" style="-webkit-tap-highlight-color: rgba(0, 0, 0, 0);"></use></marker><marker id="raphael-marker-endblock33-obj46" markerHeight="3" markerWidth="3" orient="auto" refX="1.5" refY="1.5" style="-webkit-tap-highlight-color: rgba(0, 0, 0, 0);"><use xlink:href="#raphael-marker-block" transform="rotate(180 1.5 1.5) scale(0.6,0.6)" stroke-width="1.6667" fill="black" stroke="none" style="-webkit-tap-highlight-color: rgba(0, 0, 0, 0);"></use></marker><marker id="raphael-marker-endblock33-obj47" markerHeight="3" markerWidth="3" orient="auto" refX="1.5" refY="1.5" style="-webkit-tap-highlight-color: rgba(0, 0, 0, 0);"><use xlink:href="#raphael-marker-block" transform="rotate(180 1.5 1.5) scale(0.6,0.6)" stroke-width="1.6667" fill="black" stroke="none" style="-webkit-tap-highlight-color: rgba(0, 0, 0, 0);"></use></marker><marker id="raphael-marker-endblock33-obj48" markerHeight="3" markerWidth="3" orient="auto" refX="1.5" refY="1.5" style="-webkit-tap-highlight-color: rgba(0, 0, 0, 0);"><use xlink:href="#raphael-marker-block" transform="rotate(180 1.5 1.5) scale(0.6,0.6)" stroke-width="1.6667" fill="black" stroke="none" style="-webkit-tap-highlight-color: rgba(0, 0, 0, 0);"></use></marker><marker id="raphael-marker-endblock33-obj49" markerHeight="3" markerWidth="3" orient="auto" refX="1.5" refY="1.5" style="-webkit-tap-highlight-color: rgba(0, 0, 0, 0);"><use xlink:href="#raphael-marker-block" transform="rotate(180 1.5 1.5) scale(0.6,0.6)" stroke-width="1.6667" fill="black" stroke="none" style="-webkit-tap-highlight-color: rgba(0, 0, 0, 0);"></use></marker><marker id="raphael-marker-endblock33-obj50" markerHeight="3" markerWidth="3" orient="auto" refX="1.5" refY="1.5" style="-webkit-tap-highlight-color: rgba(0, 0, 0, 0);"><use xlink:href="#raphael-marker-block" transform="rotate(180 1.5 1.5) scale(0.6,0.6)" stroke-width="1.6667" fill="black" stroke="none" style="-webkit-tap-highlight-color: rgba(0, 0, 0, 0);"></use></marker><marker id="raphael-marker-endblock33-obj52" markerHeight="3" markerWidth="3" orient="auto" refX="1.5" refY="1.5" style="-webkit-tap-highlight-color: rgba(0, 0, 0, 0);"><use xlink:href="#raphael-marker-block" transform="rotate(180 1.5 1.5) scale(0.6,0.6)" stroke-width="1.6667" fill="black" stroke="none" style="-webkit-tap-highlight-color: rgba(0, 0, 0, 0);"></use></marker><marker id="raphael-marker-endblock33-obj54" markerHeight="3" markerWidth="3" orient="auto" refX="1.5" refY="1.5" style="-webkit-tap-highlight-color: rgba(0, 0, 0, 0);"><use xlink:href="#raphael-marker-block" transform="rotate(180 1.5 1.5) scale(0.6,0.6)" stroke-width="1.6667" fill="black" stroke="none" style="-webkit-tap-highlight-color: rgba(0, 0, 0, 0);"></use></marker><marker id="raphael-marker-endblock33-obj56" markerHeight="3" markerWidth="3" orient="auto" refX="1.5" refY="1.5" style="-webkit-tap-highlight-color: rgba(0, 0, 0, 0);"><use xlink:href="#raphael-marker-block" transform="rotate(180 1.5 1.5) scale(0.6,0.6)" stroke-width="1.6667" fill="black" stroke="none" style="-webkit-tap-highlight-color: rgba(0, 0, 0, 0);"></use></marker><marker id="raphael-marker-endblock33-obj58" markerHeight="3" markerWidth="3" orient="auto" refX="1.5" refY="1.5" style="-webkit-tap-highlight-color: rgba(0, 0, 0, 0);"><use xlink:href="#raphael-marker-block" transform="rotate(180 1.5 1.5) scale(0.6,0.6)" stroke-width="1.6667" fill="black" stroke="none" style="-webkit-tap-highlight-color: rgba(0, 0, 0, 0);"></use></marker><marker id="raphael-marker-endblock33-obj59" markerHeight="3" markerWidth="3" orient="auto" refX="1.5" refY="1.5" style="-webkit-tap-highlight-color: rgba(0, 0, 0, 0);"><use xlink:href="#raphael-marker-block" transform="rotate(180 1.5 1.5) scale(0.6,0.6)" stroke-width="1.6667" fill="black" stroke="none" style="-webkit-tap-highlight-color: rgba(0, 0, 0, 0);"></use></marker><marker id="raphael-marker-endblock33-obj60" markerHeight="3" markerWidth="3" orient="auto" refX="1.5" refY="1.5" style="-webkit-tap-highlight-color: rgba(0, 0, 0, 0);"><use xlink:href="#raphael-marker-block" transform="rotate(180 1.5 1.5) scale(0.6,0.6)" stroke-width="1.6667" fill="black" stroke="none" style="-webkit-tap-highlight-color: rgba(0, 0, 0, 0);"></use></marker></defs><rect x="0" y="0" width="82.671875" height="36" rx="20" ry="20" fill="#ffffff" stroke="#000000" style="-webkit-tap-highlight-color: rgba(0, 0, 0, 0);" stroke-width="3" class="flowchart" id="st3" transform="matrix(1,0,0,1,135.5156,55.916)"></rect><text x="10" y="18" text-anchor="start" font-family="&quot;Arial&quot;" font-size="14px" stroke="none" fill="#000000" style="-webkit-tap-highlight-color: rgba(0, 0, 0, 0); text-anchor: start; font-family: Arial; font-size: 14px;" id="st3t" class="flowchartt" transform="matrix(1,0,0,1,135.5156,55.916)" stroke-width="1"><tspan dy="5" style="-webkit-tap-highlight-color: rgba(0, 0, 0, 0);">start main</tspan></text><path fill="#ffffff" stroke="#000000" d="M10,18L0,36L75.34375,36L95.34375,0L20,0L10,18" stroke-width="3" id="io5" class="flowchart" style="-webkit-tap-highlight-color: rgba(0, 0, 0, 0);" transform="matrix(1,0,0,1,129.1797,197.832)"></path><text x="30" y="18" text-anchor="start" font-family="&quot;Arial&quot;" font-size="14px" stroke="none" fill="#000000" style="-webkit-tap-highlight-color: rgba(0, 0, 0, 0); text-anchor: start; font-family: Arial; font-size: 14px;" id="io5t" class="flowchartt" transform="matrix(1,0,0,1,129.1797,197.832)" stroke-width="1"><tspan dy="5" style="-webkit-tap-highlight-color: rgba(0, 0, 0, 0);">input: </tspan></text><rect x="0" y="0" width="78.296875" height="36" rx="0" ry="0" fill="#ffffff" stroke="#000000" style="-webkit-tap-highlight-color: rgba(0, 0, 0, 0);" stroke-width="3" class="flowchart" id="op8" transform="matrix(1,0,0,1,137.7031,339.748)"></rect><text x="10" y="18" text-anchor="start" font-family="&quot;Arial&quot;" font-size="14px" stroke="none" fill="#000000" style="-webkit-tap-highlight-color: rgba(0, 0, 0, 0); text-anchor: start; font-family: Arial; font-size: 14px;" id="op8t" class="flowchartt" transform="matrix(1,0,0,1,137.7031,339.748)" stroke-width="1"><tspan dy="5" style="-webkit-tap-highlight-color: rgba(0, 0, 0, 0);">floats = []</tspan></text><path fill="#ffffff" stroke="#000000" d="M50.267578125,25.1337890625L0,50.267578125L100.53515625,100.53515625L201.0703125,50.267578125L100.53515625,0L0,50.267578125" stroke-width="3" id="cond11" class="flowchart" style="-webkit-tap-highlight-color: rgba(0, 0, 0, 0);" transform="matrix(1,0,0,1,76.3164,449.3965)"></path><text x="55.267578125" y="50.267578125" text-anchor="start" font-family="&quot;Arial&quot;" font-size="14px" stroke="none" fill="#000000" style="-webkit-tap-highlight-color: rgba(0, 0, 0, 0); text-anchor: start; font-family: Arial; font-size: 14px;" id="cond11t" class="flowchartt" transform="matrix(1,0,0,1,76.3164,449.3965)" stroke-width="1"><tspan dy="5.001953125" style="-webkit-tap-highlight-color: rgba(0, 0, 0, 0);">for i in range(10)</tspan></text><rect x="0" y="0" width="341.703125" height="36" rx="0" ry="0" fill="#ffffff" stroke="#000000" style="-webkit-tap-highlight-color: rgba(0, 0, 0, 0);" stroke-width="3" class="flowchart" id="sub18" transform="matrix(1,0,0,1,6,655.8477)"></rect><rect x="10" y="0" width="321.703125" height="36" rx="0" ry="0" fill="#ffffff" stroke="#000000" style="-webkit-tap-highlight-color: rgba(0, 0, 0, 0);" stroke-width="3" id="sub18i" transform="matrix(1,0,0,1,6,655.8477)"></rect><text x="20" y="18" text-anchor="start" font-family="&quot;Arial&quot;" font-size="14px" stroke="none" fill="#000000" style="-webkit-tap-highlight-color: rgba(0, 0, 0, 0); text-anchor: start; font-family: Arial; font-size: 14px;" id="sub18t" class="flowchartt" transform="matrix(1,0,0,1,6,655.8477)" stroke-width="1"><tspan dy="5" style="-webkit-tap-highlight-color: rgba(0, 0, 0, 0);">floats.append(round(random.uniform(1, 100), 2))</tspan></text><rect x="0" y="0" width="267.484375" height="36" rx="0" ry="0" fill="#ffffff" stroke="#000000" style="-webkit-tap-highlight-color: rgba(0, 0, 0, 0);" stroke-width="3" class="flowchart" id="sub22" transform="matrix(1,0,0,1,370.4961,481.6641)"></rect><rect x="10" y="0" width="247.484375" height="36" rx="0" ry="0" fill="#ffffff" stroke="#000000" style="-webkit-tap-highlight-color: rgba(0, 0, 0, 0);" stroke-width="3" id="sub22i" transform="matrix(1,0,0,1,370.4961,481.6641)"></rect><text x="20" y="18" text-anchor="start" font-family="&quot;Arial&quot;" font-size="14px" stroke="none" fill="#000000" style="-webkit-tap-highlight-color: rgba(0, 0, 0, 0); text-anchor: start; font-family: Arial; font-size: 14px;" id="sub22t" class="flowchartt" transform="matrix(1,0,0,1,370.4961,481.6641)" stroke-width="1"><tspan dy="5" style="-webkit-tap-highlight-color: rgba(0, 0, 0, 0);">print(f'Изначальные числа: {floats}')</tspan></text><rect x="0" y="0" width="166.234375" height="36" rx="0" ry="0" fill="#ffffff" stroke="#000000" style="-webkit-tap-highlight-color: rgba(0, 0, 0, 0);" stroke-width="3" class="flowchart" id="op24" transform="matrix(1,0,0,1,421.1211,623.5801)"></rect><text x="10" y="18" text-anchor="start" font-family="&quot;Arial&quot;" font-size="14px" stroke="none" fill="#000000" style="-webkit-tap-highlight-color: rgba(0, 0, 0, 0); text-anchor: start; font-family: Arial; font-size: 14px;" id="op24t" class="flowchartt" transform="matrix(1,0,0,1,421.1211,623.5801)" stroke-width="1"><tspan dy="5" style="-webkit-tap-highlight-color: rgba(0, 0, 0, 0);">first_element = floats[0]</tspan></text><rect x="0" y="0" width="159.21875" height="36" rx="0" ry="0" fill="#ffffff" stroke="#000000" style="-webkit-tap-highlight-color: rgba(0, 0, 0, 0);" stroke-width="3" class="flowchart" id="op26" transform="matrix(1,0,0,1,424.6289,765.4961)"></rect><text x="10" y="18" text-anchor="start" font-family="&quot;Arial&quot;" font-size="14px" stroke="none" fill="#000000" style="-webkit-tap-highlight-color: rgba(0, 0, 0, 0); text-anchor: start; font-family: Arial; font-size: 14px;" id="op26t" class="flowchartt" transform="matrix(1,0,0,1,424.6289,765.4961)" stroke-width="1"><tspan dy="5" style="-webkit-tap-highlight-color: rgba(0, 0, 0, 0);">result = [first_element]</tspan></text><rect x="0" y="0" width="92.703125" height="36" rx="0" ry="0" fill="#ffffff" stroke="#000000" style="-webkit-tap-highlight-color: rgba(0, 0, 0, 0);" stroke-width="3" class="flowchart" id="op28" transform="matrix(1,0,0,1,457.8867,907.4121)"></rect><text x="10" y="18" text-anchor="start" font-family="&quot;Arial&quot;" font-size="14px" stroke="none" fill="#000000" style="-webkit-tap-highlight-color: rgba(0, 0, 0, 0); text-anchor: start; font-family: Arial; font-size: 14px;" id="op28t" class="flowchartt" transform="matrix(1,0,0,1,457.8867,907.4121)" stroke-width="1"><tspan dy="5" style="-webkit-tap-highlight-color: rgba(0, 0, 0, 0);">del floats[0]</tspan></text><path fill="#ffffff" stroke="#000000" d="M51.685546875,25.8427734375L0,51.685546875L103.37109375,103.37109375L206.7421875,51.685546875L103.37109375,0L0,51.685546875" stroke-width="3" id="cond31" class="flowchart" style="-webkit-tap-highlight-color: rgba(0, 0, 0, 0);" transform="matrix(1,0,0,1,400.8672,1015.6426)"></path><text x="56.685546875" y="51.685546875" text-anchor="start" font-family="&quot;Arial&quot;" font-size="14px" stroke="none" fill="#000000" style="-webkit-tap-highlight-color: rgba(0, 0, 0, 0); text-anchor: start; font-family: Arial; font-size: 14px;" id="cond31t" class="flowchartt" transform="matrix(1,0,0,1,400.8672,1015.6426)" stroke-width="1"><tspan dy="5.013671875" style="-webkit-tap-highlight-color: rgba(0, 0, 0, 0);">for value in floats</tspan></text><path fill="#ffffff" stroke="#000000" d="M67.916015625,33.9580078125L0,67.916015625L135.83203125,135.83203125L271.6640625,67.916015625L135.83203125,0L0,67.916015625" stroke-width="3" id="cond51" class="flowchart" style="-webkit-tap-highlight-color: rgba(0, 0, 0, 0);" transform="matrix(1,0,0,1,368.4063,1175.0137)"></path><text x="72.916015625" y="67.916015625" text-anchor="start" font-family="&quot;Arial&quot;" font-size="14px" stroke="none" fill="#000000" style="-webkit-tap-highlight-color: rgba(0, 0, 0, 0); text-anchor: start; font-family: Arial; font-size: 14px;" id="cond51t" class="flowchartt" transform="matrix(1,0,0,1,368.4063,1175.0137)" stroke-width="1"><tspan dy="5.009765625" style="-webkit-tap-highlight-color: rgba(0, 0, 0, 0);">if (value &gt; first_element)</tspan></text><rect x="0" y="0" width="172.046875" height="36" rx="0" ry="0" fill="#ffffff" stroke="#000000" style="-webkit-tap-highlight-color: rgba(0, 0, 0, 0);" stroke-width="3" class="flowchart" id="sub55" transform="matrix(1,0,0,1,418.2148,1416.7617)"></rect><rect x="10" y="0" width="152.046875" height="36" rx="0" ry="0" fill="#ffffff" stroke="#000000" style="-webkit-tap-highlight-color: rgba(0, 0, 0, 0);" stroke-width="3" id="sub55i" transform="matrix(1,0,0,1,418.2148,1416.7617)"></rect><text x="20" y="18" text-anchor="start" font-family="&quot;Arial&quot;" font-size="14px" stroke="none" fill="#000000" style="-webkit-tap-highlight-color: rgba(0, 0, 0, 0); text-anchor: start; font-family: Arial; font-size: 14px;" id="sub55t" class="flowchartt" transform="matrix(1,0,0,1,418.2148,1416.7617)" stroke-width="1"><tspan dy="5" style="-webkit-tap-highlight-color: rgba(0, 0, 0, 0);">result.insert(0, value)</tspan></text><rect x="0" y="0" width="95.140625" height="36" rx="0" ry="0" fill="#ffffff" stroke="#000000" style="-webkit-tap-highlight-color: rgba(0, 0, 0, 0);" stroke-width="3" class="flowchart" id="sub57" transform="matrix(1,0,0,1,456.668,1558.6777)"></rect><rect x="10" y="0" width="75.140625" height="36" rx="0" ry="0" fill="#ffffff" stroke="#000000" style="-webkit-tap-highlight-color: rgba(0, 0, 0, 0);" stroke-width="3" id="sub57i" transform="matrix(1,0,0,1,456.668,1558.6777)"></rect><text x="20" y="18" text-anchor="start" font-family="&quot;Arial&quot;" font-size="14px" stroke="none" fill="#000000" style="-webkit-tap-highlight-color: rgba(0, 0, 0, 0); text-anchor: start; font-family: Arial; font-size: 14px;" id="sub57t" class="flowchartt" transform="matrix(1,0,0,1,456.668,1558.6777)" stroke-width="1"><tspan dy="5" style="-webkit-tap-highlight-color: rgba(0, 0, 0, 0);">continue</tspan></text><rect x="0" y="0" width="168.96875" height="36" rx="0" ry="0" fill="#ffffff" stroke="#000000" style="-webkit-tap-highlight-color: rgba(0, 0, 0, 0);" stroke-width="3" class="flowchart" id="sub62" transform="matrix(1,0,0,1,782.4375,1224.9297)"></rect><rect x="10" y="0" width="148.96875" height="36" rx="0" ry="0" fill="#ffffff" stroke="#000000" style="-webkit-tap-highlight-color: rgba(0, 0, 0, 0);" stroke-width="3" id="sub62i" transform="matrix(1,0,0,1,782.4375,1224.9297)"></rect><text x="20" y="18" text-anchor="start" font-family="&quot;Arial&quot;" font-size="14px" stroke="none" fill="#000000" style="-webkit-tap-highlight-color: rgba(0, 0, 0, 0); text-anchor: start; font-family: Arial; font-size: 14px;" id="sub62t" class="flowchartt" transform="matrix(1,0,0,1,782.4375,1224.9297)" stroke-width="1"><tspan dy="5" style="-webkit-tap-highlight-color: rgba(0, 0, 0, 0);">result.append(value)</tspan></text><rect x="0" y="0" width="298.203125" height="36" rx="0" ry="0" fill="#ffffff" stroke="#000000" style="-webkit-tap-highlight-color: rgba(0, 0, 0, 0);" stroke-width="3" class="flowchart" id="sub66" transform="matrix(1,0,0,1,1001.4063,1049.3281)"></rect><rect x="10" y="0" width="278.203125" height="36" rx="0" ry="0" fill="#ffffff" stroke="#000000" style="-webkit-tap-highlight-color: rgba(0, 0, 0, 0);" stroke-width="3" id="sub66i" transform="matrix(1,0,0,1,1001.4063,1049.3281)"></rect><text x="20" y="18" text-anchor="start" font-family="&quot;Arial&quot;" font-size="14px" stroke="none" fill="#000000" style="-webkit-tap-highlight-color: rgba(0, 0, 0, 0); text-anchor: start; font-family: Arial; font-size: 14px;" id="sub66t" class="flowchartt" transform="matrix(1,0,0,1,1001.4063,1049.3281)" stroke-width="1"><tspan dy="5" style="-webkit-tap-highlight-color: rgba(0, 0, 0, 0);">print(f'Отсортированные числа: {result}')</tspan></text><rect x="0" y="0" width="78.796875" height="36" rx="20" ry="20" fill="#ffffff" stroke="#000000" style="-webkit-tap-highlight-color: rgba(0, 0, 0, 0);" stroke-width="3" class="flowchart" id="e68" transform="matrix(1,0,0,1,1111.1094,1191.2441)"></rect><text x="10" y="18" text-anchor="start" font-family="&quot;Arial&quot;" font-size="14px" stroke="none" fill="#000000" style="-webkit-tap-highlight-color: rgba(0, 0, 0, 0); text-anchor: start; font-family: Arial; font-size: 14px;" id="e68t" class="flowchartt" transform="matrix(1,0,0,1,1111.1094,1191.2441)" stroke-width="1"><tspan dy="5" style="-webkit-tap-highlight-color: rgba(0, 0, 0, 0);">end main</tspan><tspan dy="16.8" x="10" style="-webkit-tap-highlight-color: rgba(0, 0, 0, 0);"></tspan></text><path fill="none" stroke="#000000" d="M176.8515625,91.916015625C176.8515625,91.916015625,176.8515625,173.14377851749305,176.8515625,193.33173325981676" stroke-width="3" marker-end="url(#raphael-marker-endblock33-obj38)" style="-webkit-tap-highlight-color: rgba(0, 0, 0, 0);"></path><path fill="none" stroke="#000000" d="M176.8515625,233.83203125C176.8515625,233.83203125,176.8515625,315.05979414249305,176.8515625,335.24774888481676" stroke-width="3" marker-end="url(#raphael-marker-endblock33-obj39)" style="-webkit-tap-highlight-color: rgba(0, 0, 0, 0);"></path><path fill="none" stroke="#000000" d="M176.8515625,375.748046875C176.8515625,375.748046875,176.8515625,428.9101470410824,176.8515625,444.90030998166185" stroke-width="3" marker-end="url(#raphael-marker-endblock33-obj40)" style="-webkit-tap-highlight-color: rgba(0, 0, 0, 0);"></path><path fill="none" stroke="#000000" d="M176.8515625,549.931640625C176.8515625,549.931640625,176.8515625,631.159403517493,176.8515625,651.3473582598167" stroke-width="3" marker-end="url(#raphael-marker-endblock33-obj41)" style="-webkit-tap-highlight-color: rgba(0, 0, 0, 0);"></path><text x="181.8515625" y="559.931640625" text-anchor="start" font-family="&quot;Arial&quot;" font-size="14px" stroke="none" fill="#000000" style="-webkit-tap-highlight-color: rgba(0, 0, 0, 0); text-anchor: start; font-family: Arial; font-size: 14px;" stroke-width="1"><tspan dy="5.009765625" style="-webkit-tap-highlight-color: rgba(0, 0, 0, 0);">yes</tspan></text><path fill="none" stroke="#000000" d="M277.38671875,499.6640625C277.38671875,499.6640625,347.40628719329834,499.6640625,366.00523506104946,499.6640625" stroke-width="3" marker-end="url(#raphael-marker-endblock33-obj43)" style="-webkit-tap-highlight-color: rgba(0, 0, 0, 0);"></path><text x="282.38671875" y="489.6640625" text-anchor="start" font-family="&quot;Arial&quot;" font-size="14px" stroke="none" fill="#000000" style="-webkit-tap-highlight-color: rgba(0, 0, 0, 0); text-anchor: start; font-family: Arial; font-size: 14px;" stroke-width="1"><tspan dy="5.0078125" style="-webkit-tap-highlight-color: rgba(0, 0, 0, 0);">no</tspan></text><path fill="none" stroke="#000000" d="M6,673.84765625C6,673.84765625,-19,673.84765625,-19,673.84765625C-19,673.84765625,-19,424.396484375,-19,424.396484375C-19,424.396484375,176.8515625,424.396484375,176.8515625,424.396484375C176.8515625,424.396484375,176.8515625,437.7004556655884,176.8515625,444.8981120083481" stroke-width="3" marker-end="url(#raphael-marker-endblock33-obj45)" style="-webkit-tap-highlight-color: rgba(0, 0, 0, 0);"></path><path fill="none" stroke="#000000" d="M504.23828125,517.6640625C504.23828125,517.6640625,504.23828125,598.891825392493,504.23828125,619.0797801348168" stroke-width="3" marker-end="url(#raphael-marker-endblock33-obj46)" style="-webkit-tap-highlight-color: rgba(0, 0, 0, 0);"></path><path fill="none" stroke="#000000" d="M504.23828125,659.580078125C504.23828125,659.580078125,504.23828125,740.807841017493,504.23828125,760.9957957598167" stroke-width="3" marker-end="url(#raphael-marker-endblock33-obj47)" style="-webkit-tap-highlight-color: rgba(0, 0, 0, 0);"></path><path fill="none" stroke="#000000" d="M504.23828125,801.49609375C504.23828125,801.49609375,504.23828125,882.723856642493,504.23828125,902.9118113848167" stroke-width="3" marker-end="url(#raphael-marker-endblock33-obj48)" style="-webkit-tap-highlight-color: rgba(0, 0, 0, 0);"></path><path fill="none" stroke="#000000" d="M504.23828125,943.412109375C504.23828125,943.412109375,504.23828125,995.371035377495,504.23828125,1011.1515295052059" stroke-width="3" marker-end="url(#raphael-marker-endblock33-obj49)" style="-webkit-tap-highlight-color: rgba(0, 0, 0, 0);"></path><path fill="none" stroke="#000000" d="M504.23828125,1119.013671875C504.23828125,1119.013671875,504.23828125,1157.21444272995,504.23828125,1170.5138321926352" stroke-width="3" marker-end="url(#raphael-marker-endblock33-obj50)" style="-webkit-tap-highlight-color: rgba(0, 0, 0, 0);"></path><text x="509.23828125" y="1129.013671875" text-anchor="start" font-family="&quot;Arial&quot;" font-size="14px" stroke="none" fill="#000000" style="-webkit-tap-highlight-color: rgba(0, 0, 0, 0); text-anchor: start; font-family: Arial; font-size: 14px;" stroke-width="1"><tspan dy="5.013671875" style="-webkit-tap-highlight-color: rgba(0, 0, 0, 0);">yes</tspan></text><path fill="none" stroke="#000000" d="M607.609375,1067.328125C607.609375,1067.328125,953.2693916100543,1067.328125,996.8988419487746,1067.328125" stroke-width="3" marker-end="url(#raphael-marker-endblock33-obj52)" style="-webkit-tap-highlight-color: rgba(0, 0, 0, 0);"></path><text x="612.609375" y="1057.328125" text-anchor="start" font-family="&quot;Arial&quot;" font-size="14px" stroke="none" fill="#000000" style="-webkit-tap-highlight-color: rgba(0, 0, 0, 0); text-anchor: start; font-family: Arial; font-size: 14px;" stroke-width="1"><tspan dy="5" style="-webkit-tap-highlight-color: rgba(0, 0, 0, 0);">no</tspan></text><path fill="none" stroke="#000000" d="M504.23828125,1310.845703125C504.23828125,1310.845703125,504.23828125,1392.073466017493,504.23828125,1412.2614207598167" stroke-width="3" marker-end="url(#raphael-marker-endblock33-obj54)" style="-webkit-tap-highlight-color: rgba(0, 0, 0, 0);"></path><text x="509.23828125" y="1320.845703125" text-anchor="start" font-family="&quot;Arial&quot;" font-size="14px" stroke="none" fill="#000000" style="-webkit-tap-highlight-color: rgba(0, 0, 0, 0); text-anchor: start; font-family: Arial; font-size: 14px;" stroke-width="1"><tspan dy="5.001953125" style="-webkit-tap-highlight-color: rgba(0, 0, 0, 0);">yes</tspan></text><path fill="none" stroke="#000000" d="M640.0703125,1242.9296875C640.0703125,1242.9296875,753.7419667765498,1242.9296875,777.9415963002684,1242.9296875" stroke-width="3" marker-end="url(#raphael-marker-endblock33-obj56)" style="-webkit-tap-highlight-color: rgba(0, 0, 0, 0);"></path><text x="645.0703125" y="1232.9296875" text-anchor="start" font-family="&quot;Arial&quot;" font-size="14px" stroke="none" fill="#000000" style="-webkit-tap-highlight-color: rgba(0, 0, 0, 0); text-anchor: start; font-family: Arial; font-size: 14px;" stroke-width="1"><tspan dy="5.0078125" style="-webkit-tap-highlight-color: rgba(0, 0, 0, 0);">no</tspan></text><path fill="none" stroke="#000000" d="M504.23828125,1452.76171875C504.23828125,1452.76171875,504.23828125,1533.989481642493,504.23828125,1554.1774363848167" stroke-width="3" marker-end="url(#raphael-marker-endblock33-obj58)" style="-webkit-tap-highlight-color: rgba(0, 0, 0, 0);"></path><path fill="none" stroke="#000000" d="M782.4375,1242.9296875C782.4375,1242.9296875,643.337890625,1242.9296875,643.337890625,1242.9296875C643.337890625,1242.9296875,643.337890625,1073.328125,643.337890625,1073.328125C643.337890625,1073.328125,655.337890625,1067.328125,643.337890625,1061.328125C643.337890625,1061.328125,643.337890625,990.642578125,643.337890625,990.642578125C643.337890625,990.642578125,504.23828125,990.642578125,504.23828125,990.642578125C504.23828125,990.642578125,504.23828125,1003.9465494155884,504.23828125,1011.1442057583481" stroke-width="3" marker-end="url(#raphael-marker-endblock33-obj59)" style="-webkit-tap-highlight-color: rgba(0, 0, 0, 0);"></path><path fill="none" stroke="#000000" d="M1150.5078125,1085.328125C1150.5078125,1085.328125,1150.5078125,1166.555887892493,1150.5078125,1186.7438426348167" stroke-width="3" marker-end="url(#raphael-marker-endblock33-obj60)" style="-webkit-tap-highlight-color: rgba(0, 0, 0, 0);"></path></svg>