<?xml version="1.0" encoding="utf-8"?>
<svg viewBox="-64.377 -743.91 1022.168 2192.873" xmlns="http://www.w3.org/2000/svg">
  <defs>
    <path stroke-linecap="round" d="M5,0 0,2.5 5,5z" id="raphael-marker-block" style="-webkit-tap-highlight-color: rgba(0, 0, 0, 0);"/>
    <marker id="raphael-marker-endblock33-obj28" markerHeight="3" markerWidth="3" orient="auto" refX="1.5" refY="1.5" style="-webkit-tap-highlight-color: rgba(0, 0, 0, 0);">
      <path stroke-linecap="round" d="M5,0 0,2.5 5,5z" style="-webkit-tap-highlight-color: rgba(0, 0, 0, 0);" transform="matrix(-0.6000000238418579, 7.347881086862669e-17, -7.347881086862669e-17, -0.6000000238418579, 3, 3)" stroke-width="1.6667" fill="black" stroke="none"/>
    </marker>
    <marker id="raphael-marker-endblock33-obj30" markerHeight="3" markerWidth="3" orient="auto" refX="1.5" refY="1.5" style="-webkit-tap-highlight-color: rgba(0, 0, 0, 0);">
      <path stroke-linecap="round" d="M5,0 0,2.5 5,5z" style="-webkit-tap-highlight-color: rgba(0, 0, 0, 0);" transform="matrix(-0.6000000238418579, 7.347881086862669e-17, -7.347881086862669e-17, -0.6000000238418579, 3, 3)" stroke-width="1.6667" fill="black" stroke="none"/>
    </marker>
    <marker id="raphael-marker-endblock33-obj31" markerHeight="3" markerWidth="3" orient="auto" refX="1.5" refY="1.5" style="-webkit-tap-highlight-color: rgba(0, 0, 0, 0);">
      <path stroke-linecap="round" d="M5,0 0,2.5 5,5z" style="-webkit-tap-highlight-color: rgba(0, 0, 0, 0);" transform="matrix(-0.6000000238418579, 7.347881086862669e-17, -7.347881086862669e-17, -0.6000000238418579, 3, 3)" stroke-width="1.6667" fill="black" stroke="none"/>
    </marker>
    <marker id="raphael-marker-endblock33-obj32" markerHeight="3" markerWidth="3" orient="auto" refX="1.5" refY="1.5" style="-webkit-tap-highlight-color: rgba(0, 0, 0, 0);">
      <path stroke-linecap="round" d="M5,0 0,2.5 5,5z" style="-webkit-tap-highlight-color: rgba(0, 0, 0, 0);" transform="matrix(-0.6000000238418579, 7.347881086862669e-17, -7.347881086862669e-17, -0.6000000238418579, 3, 3)" stroke-width="1.6667" fill="black" stroke="none"/>
    </marker>
    <marker id="raphael-marker-endblock33-obj33" markerHeight="3" markerWidth="3" orient="auto" refX="1.5" refY="1.5" style="-webkit-tap-highlight-color: rgba(0, 0, 0, 0);">
      <path stroke-linecap="round" d="M5,0 0,2.5 5,5z" style="-webkit-tap-highlight-color: rgba(0, 0, 0, 0);" transform="matrix(-0.6000000238418579, 7.347881086862669e-17, -7.347881086862669e-17, -0.6000000238418579, 3, 3)" stroke-width="1.6667" fill="black" stroke="none"/>
    </marker>
    <marker id="raphael-marker-endblock33-obj34" markerHeight="3" markerWidth="3" orient="auto" refX="1.5" refY="1.5" style="-webkit-tap-highlight-color: rgba(0, 0, 0, 0);">
      <path stroke-linecap="round" d="M5,0 0,2.5 5,5z" style="-webkit-tap-highlight-color: rgba(0, 0, 0, 0);" transform="matrix(-0.6000000238418579, 7.347881086862669e-17, -7.347881086862669e-17, -0.6000000238418579, 3, 3)" stroke-width="1.6667" fill="black" stroke="none"/>
    </marker>
    <marker id="raphael-marker-endblock33-obj36" markerHeight="3" markerWidth="3" orient="auto" refX="1.5" refY="1.5" style="-webkit-tap-highlight-color: rgba(0, 0, 0, 0);">
      <path stroke-linecap="round" d="M5,0 0,2.5 5,5z" style="-webkit-tap-highlight-color: rgba(0, 0, 0, 0);" transform="matrix(-0.6000000238418579, 7.347881086862669e-17, -7.347881086862669e-17, -0.6000000238418579, 3, 3)" stroke-width="1.6667" fill="black" stroke="none"/>
    </marker>
    <marker id="raphael-marker-endblock33-obj38" markerHeight="3" markerWidth="3" orient="auto" refX="1.5" refY="1.5" style="-webkit-tap-highlight-color: rgba(0, 0, 0, 0);">
      <path stroke-linecap="round" d="M5,0 0,2.5 5,5z" style="-webkit-tap-highlight-color: rgba(0, 0, 0, 0);" transform="matrix(-0.6000000238418579, 7.347881086862669e-17, -7.347881086862669e-17, -0.6000000238418579, 3, 3)" stroke-width="1.6667" fill="black" stroke="none"/>
    </marker>
    <marker id="raphael-marker-endblock33-obj39" markerHeight="3" markerWidth="3" orient="auto" refX="1.5" refY="1.5" style="-webkit-tap-highlight-color: rgba(0, 0, 0, 0);">
      <path stroke-linecap="round" d="M5,0 0,2.5 5,5z" style="-webkit-tap-highlight-color: rgba(0, 0, 0, 0);" transform="matrix(-0.6000000238418579, 7.347881086862669e-17, -7.347881086862669e-17, -0.6000000238418579, 3, 3)" stroke-width="1.6667" fill="black" stroke="none"/>
    </marker>
    <marker id="raphael-marker-endblock33-obj40" markerHeight="3" markerWidth="3" orient="auto" refX="1.5" refY="1.5" style="-webkit-tap-highlight-color: rgba(0, 0, 0, 0);">
      <path stroke-linecap="round" d="M5,0 0,2.5 5,5z" style="-webkit-tap-highlight-color: rgba(0, 0, 0, 0);" transform="matrix(-0.6000000238418579, 7.347881086862669e-17, -7.347881086862669e-17, -0.6000000238418579, 3, 3)" stroke-width="1.6667" fill="black" stroke="none"/>
    </marker>
    <marker id="raphael-marker-endblock33-obj42" markerHeight="3" markerWidth="3" orient="auto" refX="1.5" refY="1.5" style="-webkit-tap-highlight-color: rgba(0, 0, 0, 0);">
      <path stroke-linecap="round" d="M5,0 0,2.5 5,5z" style="-webkit-tap-highlight-color: rgba(0, 0, 0, 0);" transform="matrix(-0.6000000238418579, 7.347881086862669e-17, -7.347881086862669e-17, -0.6000000238418579, 3, 3)" stroke-width="1.6667" fill="black" stroke="none"/>
    </marker>
    <marker id="raphael-marker-endblock33-obj44" markerHeight="3" markerWidth="3" orient="auto" refX="1.5" refY="1.5" style="-webkit-tap-highlight-color: rgba(0, 0, 0, 0);">
      <path stroke-linecap="round" d="M5,0 0,2.5 5,5z" style="-webkit-tap-highlight-color: rgba(0, 0, 0, 0);" transform="matrix(-0.6000000238418579, 7.347881086862669e-17, -7.347881086862669e-17, -0.6000000238418579, 3, 3)" stroke-width="1.6667" fill="black" stroke="none"/>
    </marker>
    <marker id="raphael-marker-endblock33-obj45" markerHeight="3" markerWidth="3" orient="auto" refX="1.5" refY="1.5" style="-webkit-tap-highlight-color: rgba(0, 0, 0, 0);">
      <path stroke-linecap="round" d="M5,0 0,2.5 5,5z" style="-webkit-tap-highlight-color: rgba(0, 0, 0, 0);" transform="matrix(-0.6000000238418579, 7.347881086862669e-17, -7.347881086862669e-17, -0.6000000238418579, 3, 3)" stroke-width="1.6667" fill="black" stroke="none"/>
    </marker>
  </defs>
  <desc style="-webkit-tap-highlight-color: rgba(0, 0, 0, 0);">Created with Raphaël 2.1.4</desc>
  <rect x="379.988" y="-706.244" width="82.672" height="36" rx="20" ry="20" fill="#ffffff" stroke="#000000" style="-webkit-tap-highlight-color: rgba(0, 0, 0, 0);" stroke-width="3" class="flowchart" id="st3"/>
  <text x="391.245" y="-688.243" text-anchor="start" font-family="&quot;Arial&quot;" font-size="14px" stroke="none" fill="#000000" style="-webkit-tap-highlight-color: rgba(0, 0, 0, 0); text-anchor: start; font-family: Arial; font-size: 14px; white-space: pre;" id="st3t" class="flowchartt" stroke-width="1"><tspan dy="5" style="-webkit-tap-highlight-color: rgba(0, 0, 0, 0); font-size: 14px; word-spacing: 0px;">start main</tspan></text>
  <rect x="0" y="0" width="49.0625" height="36" rx="0" ry="0" fill="#ffffff" stroke="#000000" style="-webkit-tap-highlight-color: rgba(0, 0, 0, 0);" stroke-width="3" class="flowchart" id="op8" transform="matrix(1, 0, 0, 1, 398.04976, -511.20408)"/>
  <text x="10" y="18" text-anchor="start" font-family="&quot;Arial&quot;" font-size="14px" stroke="none" fill="#000000" style="-webkit-tap-highlight-color: rgba(0, 0, 0, 0); text-anchor: start; font-family: Arial; font-size: 14px; white-space: pre;" id="op8t" class="flowchartt" transform="matrix(1, 0, 0, 1, 398.04976, -511.20408)" stroke-width="1"><tspan dy="5" style="-webkit-tap-highlight-color: rgba(0, 0, 0, 0);">i = 1</tspan></text>
  <rect x="0" y="0" width="119.09375" height="36" rx="0" ry="0" fill="#ffffff" stroke="#000000" style="-webkit-tap-highlight-color: rgba(0, 0, 0, 0);" stroke-width="3" class="flowchart" id="op10" transform="matrix(1, 0, 0, 1, 363.034166, -318.803659)"/>
  <text x="10" y="18" text-anchor="start" font-family="&quot;Arial&quot;" font-size="14px" stroke="none" fill="#000000" style="-webkit-tap-highlight-color: rgba(0, 0, 0, 0); text-anchor: start; font-family: Arial; font-size: 14px; white-space: pre;" id="op10t" class="flowchartt" transform="matrix(1, 0, 0, 1, 363.034166, -318.803659)" stroke-width="1"><tspan dy="5" style="-webkit-tap-highlight-color: rgba(0, 0, 0, 0);">number = None</tspan></text>
  <rect x="0" y="0" width="140.125" height="36" rx="0" ry="0" fill="#ffffff" stroke="#000000" style="-webkit-tap-highlight-color: rgba(0, 0, 0, 0);" stroke-width="3" class="flowchart" id="op12" transform="matrix(1, 0, 0, 1, 352.518571, -126.403269)"/>
  <text x="10" y="18" text-anchor="start" font-family="&quot;Arial&quot;" font-size="14px" stroke="none" fill="#000000" style="-webkit-tap-highlight-color: rgba(0, 0, 0, 0); text-anchor: start; font-family: Arial; font-size: 14px; white-space: pre;" id="op12t" class="flowchartt" transform="matrix(1, 0, 0, 1, 352.518571, -126.403269)" stroke-width="1"><tspan dy="5" style="-webkit-tap-highlight-color: rgba(0, 0, 0, 0);">prev_value = None</tspan></text>
  <rect x="0" y="0" width="340.375" height="36" rx="0" ry="0" fill="#ffffff" stroke="#000000" style="-webkit-tap-highlight-color: rgba(0, 0, 0, 0);" stroke-width="3" class="flowchart" id="sub14" transform="matrix(1, 0, 0, 1, 252.393564, 65.997061)"/>
  <rect x="10" y="0" width="320.375" height="36" rx="0" ry="0" fill="#ffffff" stroke="#000000" style="-webkit-tap-highlight-color: rgba(0, 0, 0, 0);" stroke-width="3" id="sub14i" transform="matrix(1, 0, 0, 1, 252.393564, 65.997061)"/>
  <text x="20" y="18" text-anchor="start" font-family="&quot;Arial&quot;" font-size="14px" stroke="none" fill="#000000" style="-webkit-tap-highlight-color: rgba(0, 0, 0, 0); text-anchor: start; font-family: Arial; font-size: 14px; white-space: pre;" id="sub14t" class="flowchartt" transform="matrix(1, 0, 0, 1, 252.393564, 65.997061)" stroke-width="1"><tspan dy="5" style="-webkit-tap-highlight-color: rgba(0, 0, 0, 0);">print('Введите числа, 0 означает конец ввода')</tspan></text>
  <path fill="#ffffff" stroke="#000000" d="M57.205078125,28.6025390625L0,57.205078125L114.41015625,114.41015625L228.8203125,57.205078125L114.41015625,0L0,57.205078125" stroke-width="3" id="cond17" class="flowchart" style="-webkit-tap-highlight-color: rgba(0, 0, 0, 0);" transform="matrix(1, 0, 0, 1, 308.170869, 219.192373)"/>
  <text x="62.205078125" y="57.205078125" text-anchor="start" font-family="&quot;Arial&quot;" font-size="14px" stroke="none" fill="#000000" style="-webkit-tap-highlight-color: rgba(0, 0, 0, 0); text-anchor: start; font-family: Arial; font-size: 14px; white-space: pre;" id="cond17t" class="flowchartt" transform="matrix(1, 0, 0, 1, 308.170869, 219.192373)" stroke-width="1"><tspan dy="5.001953125" style="-webkit-tap-highlight-color: rgba(0, 0, 0, 0);">while (number != 0)</tspan></text>
  <rect x="0" y="0" width="229.96875" height="36" rx="0" ry="0" fill="#ffffff" stroke="#000000" style="-webkit-tap-highlight-color: rgba(0, 0, 0, 0);" stroke-width="3" class="flowchart" id="op38" transform="matrix(1, 0, 0, 1, 307.596666, 490.00292)"/>
  <text x="10" y="18" text-anchor="start" font-family="&quot;Arial&quot;" font-size="14px" stroke="none" fill="#000000" style="-webkit-tap-highlight-color: rgba(0, 0, 0, 0); text-anchor: start; font-family: Arial; font-size: 14px; white-space: pre;" id="op38t" class="flowchartt" transform="matrix(1, 0, 0, 1, 307.596666, 490.00292)" stroke-width="1"><tspan dy="5" style="-webkit-tap-highlight-color: rgba(0, 0, 0, 0);">number = int(input(f'Число #{i}: '))</tspan></text>
  <rect x="0" y="0" width="57.234375" height="36" rx="0" ry="0" fill="#ffffff" stroke="#000000" style="-webkit-tap-highlight-color: rgba(0, 0, 0, 0);" stroke-width="3" class="flowchart" id="op40" transform="matrix(1, 0, 0, 1, 393.963869, 682.403311)"/>
  <text x="10" y="18" text-anchor="start" font-family="&quot;Arial&quot;" font-size="14px" stroke="none" fill="#000000" style="-webkit-tap-highlight-color: rgba(0, 0, 0, 0); text-anchor: start; font-family: Arial; font-size: 14px; white-space: pre;" id="op40t" class="flowchartt" transform="matrix(1, 0, 0, 1, 393.963869, 682.403311)" stroke-width="1"><tspan dy="5" style="-webkit-tap-highlight-color: rgba(0, 0, 0, 0);">i += 1</tspan></text>
  <path fill="#ffffff" stroke="#000000" d="M118.400390625,59.2001953125L0,118.400390625L236.80078125,236.80078125L473.6015625,118.400390625L236.80078125,0L0,118.400390625" stroke-width="3" id="cond43" class="flowchart" style="-webkit-tap-highlight-color: rgba(0, 0, 0, 0);" transform="matrix(1, 0, 0, 1, 185.780265, 774.403311)"/>
  <text x="123.400390625" y="118.400390625" text-anchor="start" font-family="&quot;Arial&quot;" font-size="14px" stroke="none" fill="#000000" style="-webkit-tap-highlight-color: rgba(0, 0, 0, 0); text-anchor: start; font-family: Arial; font-size: 14px; white-space: pre;" id="cond43t" class="flowchartt" transform="matrix(1, 0, 0, 1, 185.780265, 774.403311)" stroke-width="1"><tspan dy="5.009765625" style="-webkit-tap-highlight-color: rgba(0, 0, 0, 0);">if ((number &lt; 0) and (prev_value is not None))</tspan></text>
  <rect x="0" y="0" width="510.21875" height="36" rx="0" ry="0" fill="#ffffff" stroke="#000000" style="-webkit-tap-highlight-color: rgba(0, 0, 0, 0);" stroke-width="3" class="flowchart" id="sub47" transform="matrix(1, 0, 0, 1, 167.471666, 1167.604483)"/>
  <rect x="10" y="0" width="490.21875" height="36" rx="0" ry="0" fill="#ffffff" stroke="#000000" style="-webkit-tap-highlight-color: rgba(0, 0, 0, 0);" stroke-width="3" id="sub47i" transform="matrix(1, 0, 0, 1, 167.471666, 1167.604483)"/>
  <text x="20" y="18" text-anchor="start" font-family="&quot;Arial&quot;" font-size="14px" stroke="none" fill="#000000" style="-webkit-tap-highlight-color: rgba(0, 0, 0, 0); text-anchor: start; font-family: Arial; font-size: 14px; white-space: pre;" id="sub47t" class="flowchartt" transform="matrix(1, 0, 0, 1, 167.471666, 1167.604483)" stroke-width="1"><tspan dy="5" style="-webkit-tap-highlight-color: rgba(0, 0, 0, 0);">print(f'Перед отрицательный числом {number} было число: {prev_value}')</tspan></text>
  <rect x="0" y="0" width="154.25" height="36" rx="0" ry="0" fill="#ffffff" stroke="#000000" style="-webkit-tap-highlight-color: rgba(0, 0, 0, 0);" stroke-width="3" class="flowchart" id="op52" transform="matrix(1, 0, 0, 1, 345.456071, 1360.004873)"/>
  <text x="10" y="18" text-anchor="start" font-family="&quot;Arial&quot;" font-size="14px" stroke="none" fill="#000000" style="-webkit-tap-highlight-color: rgba(0, 0, 0, 0); text-anchor: start; font-family: Arial; font-size: 14px; white-space: pre;" id="op52t" class="flowchartt" transform="matrix(1, 0, 0, 1, 345.456071, 1360.004873)" stroke-width="1"><tspan dy="5" style="-webkit-tap-highlight-color: rgba(0, 0, 0, 0);">prev_value = number</tspan></text>
  <rect x="0" y="0" width="78.796875" height="36" rx="20" ry="20" fill="#ffffff" stroke="#000000" style="-webkit-tap-highlight-color: rgba(0, 0, 0, 0);" stroke-width="3" class="flowchart" id="e56" transform="matrix(1, 0, 0, 1, 808.702196, 258.397452)"/>
  <text x="10" y="18" text-anchor="start" font-family="&quot;Arial&quot;" font-size="14px" stroke="none" fill="#000000" style="-webkit-tap-highlight-color: rgba(0, 0, 0, 0); text-anchor: start; font-family: Arial; font-size: 14px; white-space: pre;" id="e56t" class="flowchartt" transform="matrix(1, 0, 0, 1, 808.702196, 258.397452)" stroke-width="1"><tspan dy="5" style="-webkit-tap-highlight-color: rgba(0, 0, 0, 0);">end main</tspan><tspan dy="16.8" x="10" style="-webkit-tap-highlight-color: rgba(0, 0, 0, 0);"/></text>
  <path fill="none" stroke="#000000" d="M 422.581 -667.854 C 422.581 -667.854 422.581 -541.541 422.581 -515.945" stroke-width="3" marker-end="url(#raphael-marker-endblock33-obj28)" style="-webkit-tap-highlight-color: rgba(0, 0, 0, 0);"/>
  <path fill="none" stroke="#000000" d="M261.109375,527.201171875C261.109375,527.201171875,261.109375,653.514614658081,261.109375,679.1103562376604" stroke-width="3" marker-end="url(#raphael-marker-endblock33-obj30)" style="-webkit-tap-highlight-color: rgba(0, 0, 0, 0);" transform="matrix(1, 0, 0, 1, 161.471666, -1002.405283)"/>
  <path fill="none" stroke="#000000" d="M261.109375,719.6015625C261.109375,719.6015625,261.109375,845.915005283081,261.109375,871.5107468626603" stroke-width="3" marker-end="url(#raphael-marker-endblock33-obj31)" style="-webkit-tap-highlight-color: rgba(0, 0, 0, 0);" transform="matrix(1, 0, 0, 1, 161.471666, -1002.405283)"/>
  <path fill="none" stroke="#000000" d="M261.109375,912.001953125C261.109375,912.001953125,261.109375,1038.315395908081,261.109375,1063.9111374876604" stroke-width="3" marker-end="url(#raphael-marker-endblock33-obj32)" style="-webkit-tap-highlight-color: rgba(0, 0, 0, 0);" transform="matrix(1, 0, 0, 1, 161.471666, -1002.405283)"/>
  <path fill="none" stroke="#000000" d="M261.109375,1104.40234375C261.109375,1104.40234375,261.109375,1195.5879455362447,261.109375,1217.0931436137623" stroke-width="3" marker-end="url(#raphael-marker-endblock33-obj33)" style="-webkit-tap-highlight-color: rgba(0, 0, 0, 0);" transform="matrix(1, 0, 0, 1, 161.471666, -1002.405283)"/>
  <path fill="none" stroke="#000000" d="M261.109375,1336.0078125C261.109375,1336.0078125,261.109375,1462.321255283081,261.109375,1487.9169968626602" stroke-width="3" marker-end="url(#raphael-marker-endblock33-obj34)" style="-webkit-tap-highlight-color: rgba(0, 0, 0, 0);" transform="matrix(1, 0, 0, 1, 161.471666, -1002.405283)"/>
  <text x="266.109375" y="1346.0078125" text-anchor="start" font-family="&quot;Arial&quot;" font-size="14px" stroke="none" fill="#000000" style="-webkit-tap-highlight-color: rgba(0, 0, 0, 0); text-anchor: start; font-family: Arial; font-size: 14px; white-space: pre;" stroke-width="1" transform="matrix(1, 0, 0, 1, 161.471666, -1002.405283)"><tspan dy="5.0078125" style="-webkit-tap-highlight-color: rgba(0, 0, 0, 0);">yes</tspan></text>
  <path fill="none" stroke="#000000" d="M375.51953125,1278.802734375C375.51953125,1278.802734375,607.3522357487818,1278.802734375,642.7270991061399,1278.802734375" stroke-width="3" marker-end="url(#raphael-marker-endblock33-obj36)" style="-webkit-tap-highlight-color: rgba(0, 0, 0, 0);" transform="matrix(1, 0, 0, 1, 161.471666, -1002.405283)"/>
  <text x="380.51953125" y="1268.802734375" text-anchor="start" font-family="&quot;Arial&quot;" font-size="14px" stroke="none" fill="#000000" style="-webkit-tap-highlight-color: rgba(0, 0, 0, 0); text-anchor: start; font-family: Arial; font-size: 14px; white-space: pre;" stroke-width="1" transform="matrix(1, 0, 0, 1, 161.471666, -1002.405283)"><tspan dy="5.005859375" style="-webkit-tap-highlight-color: rgba(0, 0, 0, 0);">no</tspan></text>
  <path fill="none" stroke="#000000" d="M261.109375,1528.408203125C261.109375,1528.408203125,261.109375,1654.721645908081,261.109375,1680.3173874876604" stroke-width="3" marker-end="url(#raphael-marker-endblock33-obj38)" style="-webkit-tap-highlight-color: rgba(0, 0, 0, 0);" transform="matrix(1, 0, 0, 1, 161.471666, -1002.405283)"/>
  <path fill="none" stroke="#000000" d="M261.109375,1720.80859375C261.109375,1720.80859375,261.109375,1759.00936460495,261.109375,1772.3087540676352" stroke-width="3" marker-end="url(#raphael-marker-endblock33-obj39)" style="-webkit-tap-highlight-color: rgba(0, 0, 0, 0);" transform="matrix(1, 0, 0, 1, 161.471666, -1002.405283)"/>
  <path fill="none" stroke="#000000" d="M261.109375,2013.609375C261.109375,2013.609375,261.109375,2139.922817783081,261.109375,2165.51855936266" stroke-width="3" marker-end="url(#raphael-marker-endblock33-obj40)" style="-webkit-tap-highlight-color: rgba(0, 0, 0, 0);" transform="matrix(1, 0, 0, 1, 161.471666, -1002.405283)"/>
  <text x="266.109375" y="2023.609375" text-anchor="start" font-family="&quot;Arial&quot;" font-size="14px" stroke="none" fill="#000000" style="-webkit-tap-highlight-color: rgba(0, 0, 0, 0); text-anchor: start; font-family: Arial; font-size: 14px; white-space: pre;" stroke-width="1" transform="matrix(1, 0, 0, 1, 161.471666, -1002.405283)"><tspan dy="5" style="-webkit-tap-highlight-color: rgba(0, 0, 0, 0);">yes</tspan></text>
  <path fill="none" stroke="#000000" d="M497.91015625,1895.208984375C497.91015625,1895.208984375,522.91015625,1895.208984375,522.91015625,1895.208984375C522.91015625,1895.208984375,522.91015625,2337.41015625,522.91015625,2337.41015625C522.91015625,2337.41015625,261.109375,2337.41015625,261.109375,2337.41015625C261.109375,2337.41015625,261.109375,2350.7141275405884,261.109375,2357.911783883348" stroke-width="3" marker-end="url(#raphael-marker-endblock33-obj42)" style="-webkit-tap-highlight-color: rgba(0, 0, 0, 0);" transform="matrix(1, 0, 0, 1, 161.471666, -1002.405283)"/>
  <text x="502.91015625" y="1885.208984375" text-anchor="start" font-family="&quot;Arial&quot;" font-size="14px" stroke="none" fill="#000000" style="-webkit-tap-highlight-color: rgba(0, 0, 0, 0); text-anchor: start; font-family: Arial; font-size: 14px; white-space: pre;" stroke-width="1" transform="matrix(1, 0, 0, 1, 161.471666, -1002.405283)"><tspan dy="5.005859375" style="-webkit-tap-highlight-color: rgba(0, 0, 0, 0);">no</tspan></text>
  <path fill="none" stroke="#000000" d="M261.109375,2206.009765625C261.109375,2206.009765625,261.109375,2332.323208408081,261.109375,2357.91894998766" stroke-width="3" marker-end="url(#raphael-marker-endblock33-obj44)" style="-webkit-tap-highlight-color: rgba(0, 0, 0, 0);" transform="matrix(1, 0, 0, 1, 161.471666, -1002.405283)"/>
  <path fill="none" stroke="#000000" d="M 183.984 2380.41 C 183.984 2380.41 -131.239 2380.41 -131.239 2380.41 C -131.239 2380.41 -129.216 1196.598 -129.216 1196.598 C -129.216 1196.598 261.109 1196.598 261.109 1196.598 C 261.109 1196.598 261.109 1209.902 261.109 1217.099" stroke-width="3" marker-end="url(#raphael-marker-endblock33-obj45)" style="-webkit-tap-highlight-color: rgba(0, 0, 0, 0);" transform="matrix(1, 0, 0, 1, 161.471666, -1002.405283)"/>
</svg>